<?xml version="1.0" encoding="UTF-8" standalone="no"?>
<svg
   xmlns:dc="http://purl.org/dc/elements/1.1/"
   xmlns:cc="http://creativecommons.org/ns#"
   xmlns:rdf="http://www.w3.org/1999/02/22-rdf-syntax-ns#"
   xmlns:svg="http://www.w3.org/2000/svg"
   xmlns="http://www.w3.org/2000/svg"
   xmlns:sodipodi="http://sodipodi.sourceforge.net/DTD/sodipodi-0.dtd"
   xmlns:inkscape="http://www.inkscape.org/namespaces/inkscape"
   id="Capa_1"
   data-name="Capa 1"
   viewBox="0 0 3470.0567 1216.301"
   version="1.1"
   sodipodi:docname="mapa.svg"
   inkscape:version="0.92.2 5c3e80d, 2017-08-06">
  <metadata
     id="metadata1265">
    <rdf:RDF>
      <cc:Work
         rdf:about="">
        <dc:format>image/svg+xml</dc:format>
        <dc:type
           rdf:resource="http://purl.org/dc/dcmitype/StillImage" />
      </cc:Work>
    </rdf:RDF>
  </metadata>
  <sodipodi:namedview
     pagecolor="#ffffff"
     bordercolor="#666666"
     borderopacity="1"
     objecttolerance="10"
     gridtolerance="10"
     guidetolerance="10"
     inkscape:pageopacity="0"
     inkscape:pageshadow="2"
     inkscape:window-width="1282"
     inkscape:window-height="650"
     id="namedview1263"
     showgrid="false"
     inkscape:zoom="0.33663439"
     inkscape:cx="1735.0283"
     inkscape:cy="608.15051"
     inkscape:window-x="0"
     inkscape:window-y="0"
     inkscape:window-maximized="0"
     inkscape:current-layer="Capa_1" />
  <defs
     id="defs4">
    <style
       id="style2">.cls-1{fill:#cfcdcf;}.cls-2{fill:#d0d0d2;}.cls-3{fill:#cfcfd1;}.cls-4{fill:#cfced0;}</style>
  </defs>
  <title
     id="title6">mapa</title>
  <path
     style="fill:#cfcdcf"
     d="m 979.87988,360.56009 h 38.66922 v 43.0843 h -38.66922 z"
     id="rect8" />
  <path
     style="fill:#cfcdcf"
     d="m 933.5481,360.56009 h 38.6692 v 43.0843 h -38.6692 z"
     id="rect10" />
  <path
     style="fill:#cfcdcf"
     d="m 1024.9941,360.56009 h 38.6692 v 43.0843 h -38.6692 z"
     id="rect12" />
  <path
     style="fill:#cfcdcf"
     d="m 1070.1082,360.56009 h 38.6692 v 43.0843 h -38.6692 z"
     id="rect14" />
  <path
     style="fill:#cfcdcf"
     d="m 1115.2419,360.56009 h 38.6692 v 43.0843 h -38.6692 z"
     id="rect16" />
  <path
     style="fill:#cfcdcf"
     d="m 1160.356,360.56009 h 38.6696 v 43.0843 h -38.6696 z"
     id="rect18" />
  <path
     style="fill:#cfcdcf"
     d="m 1205.4705,360.56009 h 38.6691 v 43.0843 h -38.6691 z"
     id="rect20" />
  <path
     style="fill:#d0d0d2"
     d="m 3457.1658,84.134399 h 12.891 V 1137.1304 h -12.891 z"
     id="rect22" />
  <path
     style="fill:#d0d0d2"
     d="m 45.289,53.461 v 7.181 h 191.184 v 487.965 h 12.89 V 60.642 h 180.666 v -7.181 z"
     id="polygon24" />
  <path
     style="fill:#d0d0d2"
     d="M 3470.057,14.361 V 0 H 12.89 0 v 14.361 521.321 14.361 h 12.89 411.005 v 666.258 h 12.889 3033.273 V 1201.94 H 436.784 V 550.043 h 387.171 v -1.436 h 0.194 V 58.935 h -0.004 V 53.464 H 507.948 v 7.18 H 811.259 V 535.682 H 12.89 V 14.361 Z"
     id="polygon26" />
  <path
     style="fill:#d0d0d2"
     d="m 193.131,418.572 v 75.086 H 139.94 v 38.669 h 53.191 38.669 v -38.669 -75.086 z"
     id="polygon28" />
  <path
     style="fill:#d0d0d2"
     d="M 193.131,300.631 H 139.94 V 339.3 h 53.191 v 75.086 H 231.8 V 339.3 300.631 Z"
     id="polygon30" />
  <path
     style="fill:#d0d0d2"
     d="m 82.818,454.152 v 39.506 h 53.191 v 38.669 H 82.818 44.149 v -38.669 -39.506 z"
     id="polygon32" />
  <path
     style="fill:#d0d0d2"
     d="m 82.818,300.631 h 53.191 V 339.3 H 82.818 v 39.506 H 44.149 V 339.3 300.631 Z"
     id="polygon34" />
  <path
     style="fill:#cfcdcf"
     d="m 979.87988,409.8241 h 38.66922 v 43.0843 h -38.66922 z"
     id="rect36" />
  <path
     style="fill:#cfcdcf"
     d="m 933.5481,409.8241 h 38.6692 v 43.0843 h -38.6692 z"
     id="rect38" />
  <path
     style="fill:#cfcdcf"
     d="m 1024.9941,409.8241 h 38.6692 v 43.0843 h -38.6692 z"
     id="rect40" />
  <path
     style="fill:#cfcdcf"
     d="m 1070.1082,409.8241 h 38.6692 v 43.0843 h -38.6692 z"
     id="rect42" />
  <path
     style="fill:#cfcdcf"
     d="m 1115.2419,409.8241 h 38.6692 v 43.0843 h -38.6692 z"
     id="rect44" />
  <path
     style="fill:#cfcdcf"
     d="m 1160.356,409.8241 h 38.6696 v 43.0843 h -38.6696 z"
     id="rect46" />
  <path
     style="fill:#cfcdcf"
     d="m 1205.4705,409.8241 h 38.6691 v 43.0843 h -38.6691 z"
     id="rect48" />
  <path
     style="fill:#cfcdcf"
     d="m 979.87988,505.6152 h 38.66922 v 43.0843 h -38.66922 z"
     id="rect50" />
  <path
     style="fill:#cfcdcf"
     d="m 933.5481,505.6152 h 38.6692 v 43.0843 h -38.6692 z"
     id="rect52" />
  <path
     style="fill:#cfcdcf"
     d="m 1024.9941,505.6152 h 38.6692 v 43.0843 h -38.6692 z"
     id="rect54" />
  <path
     style="fill:#cfcdcf"
     d="m 1070.1082,505.6152 h 38.6692 v 43.0843 h -38.6692 z"
     id="rect56" />
  <path
     style="fill:#cfcdcf"
     d="m 1115.2419,505.6152 h 38.6692 v 43.0843 h -38.6692 z"
     id="rect58" />
  <path
     style="fill:#cfcdcf"
     d="m 1160.356,505.6152 h 38.6696 v 43.0843 h -38.6696 z"
     id="rect60" />
  <path
     style="fill:#cfcdcf"
     d="m 1205.4705,505.6152 h 38.6691 v 43.0843 h -38.6691 z"
     id="rect62" />
  <path
     style="fill:#cfcdcf"
     d="m 979.87988,554.87921 h 38.66922 v 43.0843 h -38.66922 z"
     id="rect64" />
  <path
     style="fill:#cfcdcf"
     d="m 933.5481,554.87921 h 38.6692 v 43.0843 h -38.6692 z"
     id="rect66" />
  <path
     style="fill:#cfcdcf"
     d="m 1024.9941,554.87921 h 38.6692 v 43.0843 h -38.6692 z"
     id="rect68" />
  <path
     style="fill:#cfcdcf"
     d="m 1070.1082,554.87921 h 38.6692 v 43.0843 h -38.6692 z"
     id="rect70" />
  <path
     style="fill:#cfcdcf"
     d="m 1115.2419,554.87921 h 38.6692 v 43.0843 h -38.6692 z"
     id="rect72" />
  <path
     style="fill:#cfcdcf"
     d="m 1160.356,554.87921 h 38.6696 v 43.0843 h -38.6696 z"
     id="rect74" />
  <path
     style="fill:#cfcdcf"
     d="m 1205.4705,554.87921 h 38.6691 v 43.0843 h -38.6691 z"
     id="rect76" />
  <path
     style="fill:#cfcdcf"
     d="m 979.87988,653.4071 h 38.66922 v 43.08431 h -38.66922 z"
     id="rect78" />
  <path
     style="fill:#cfcdcf"
     d="m 933.5481,653.4071 h 38.6692 v 43.08431 h -38.6692 z"
     id="rect80" />
  <path
     style="fill:#cfcdcf"
     d="m 1024.9941,653.4071 h 38.6692 v 43.08431 h -38.6692 z"
     id="rect82" />
  <path
     style="fill:#cfcdcf"
     d="m 1070.1082,653.4071 h 38.6692 v 43.08431 h -38.6692 z"
     id="rect84" />
  <path
     style="fill:#cfcdcf"
     d="m 1115.2419,653.4071 h 38.6692 v 43.08431 h -38.6692 z"
     id="rect86" />
  <path
     style="fill:#cfcdcf"
     d="m 1160.356,653.4071 h 38.6696 v 43.08431 h -38.6696 z"
     id="rect88" />
  <path
     style="fill:#cfcdcf"
     d="m 1205.4705,653.4071 h 38.6691 v 43.08431 h -38.6691 z"
     id="rect90" />
  <path
     style="fill:#cfcdcf"
     d="m 979.87988,702.67108 h 38.66922 v 43.0843 h -38.66922 z"
     id="rect92" />
  <path
     style="fill:#cfcdcf"
     d="m 933.5481,702.67108 h 38.6692 v 43.0843 h -38.6692 z"
     id="rect94" />
  <path
     style="fill:#cfcdcf"
     d="m 1024.9941,702.67108 h 38.6692 v 43.0843 h -38.6692 z"
     id="rect96" />
  <path
     style="fill:#cfcdcf"
     d="m 1070.1082,702.67108 h 38.6692 v 43.0843 h -38.6692 z"
     id="rect98" />
  <path
     style="fill:#cfcdcf"
     d="m 1115.2419,702.67108 h 38.6692 v 43.0843 h -38.6692 z"
     id="rect100" />
  <path
     style="fill:#cfcdcf"
     d="m 1160.356,702.67108 h 38.6696 v 43.0843 h -38.6696 z"
     id="rect102" />
  <path
     style="fill:#cfcdcf"
     d="m 1205.4705,702.67108 h 38.6691 v 43.0843 h -38.6691 z"
     id="rect104" />
  <path
     style="fill:#cfcdcf"
     d="m 979.87988,801.1991 h 38.66922 v 43.0843 h -38.66922 z"
     id="rect106" />
  <path
     style="fill:#cfcdcf"
     d="m 933.5481,801.1991 h 38.6692 v 43.0843 h -38.6692 z"
     id="rect108" />
  <path
     style="fill:#cfcdcf"
     d="m 1024.9941,801.1991 h 38.6692 v 43.0843 h -38.6692 z"
     id="rect110" />
  <path
     style="fill:#cfcdcf"
     d="m 1070.1082,801.1991 h 38.6692 v 43.0843 h -38.6692 z"
     id="rect112" />
  <path
     style="fill:#cfcdcf"
     d="m 1115.2419,801.1991 h 38.6692 v 43.0843 h -38.6692 z"
     id="rect114" />
  <path
     style="fill:#cfcdcf"
     d="m 1160.356,801.1991 h 38.6696 v 43.0843 h -38.6696 z"
     id="rect116" />
  <path
     style="fill:#cfcdcf"
     d="m 1205.4705,801.1991 h 38.6691 v 43.0843 h -38.6691 z"
     id="rect118" />
  <path
     style="fill:#cfcdcf"
     d="m 979.87988,850.46307 h 38.66922 v 43.0843 h -38.66922 z"
     id="rect120" />
  <path
     style="fill:#cfcdcf"
     d="m 933.5481,850.46307 h 38.6692 v 43.0843 h -38.6692 z"
     id="rect122" />
  <path
     style="fill:#cfcdcf"
     d="m 1024.9941,850.46307 h 38.6692 v 43.0843 h -38.6692 z"
     id="rect124" />
  <path
     style="fill:#cfcdcf"
     d="m 1070.1082,850.46307 h 38.6692 v 43.0843 h -38.6692 z"
     id="rect126" />
  <path
     style="fill:#cfcdcf"
     d="m 1115.2419,850.46307 h 38.6692 v 43.0843 h -38.6692 z"
     id="rect128" />
  <path
     style="fill:#cfcdcf"
     d="m 1160.356,850.46307 h 38.6696 v 43.0843 h -38.6696 z"
     id="rect130" />
  <path
     style="fill:#cfcdcf"
     d="m 1205.4705,850.46307 h 38.6691 v 43.0843 h -38.6691 z"
     id="rect132" />
  <path
     style="fill:#cfcdcf"
     d="m 979.87988,946.25421 h 38.66922 v 43.0843 h -38.66922 z"
     id="rect134" />
  <path
     style="fill:#cfcdcf"
     d="m 933.5481,946.25421 h 38.6692 v 43.0843 h -38.6692 z"
     id="rect136" />
  <path
     style="fill:#cfcdcf"
     d="m 1024.9941,946.25421 h 38.6692 v 43.0843 h -38.6692 z"
     id="rect138" />
  <path
     style="fill:#cfcdcf"
     d="m 1070.1082,946.25421 h 38.6692 v 43.0843 h -38.6692 z"
     id="rect140" />
  <path
     style="fill:#cfcdcf"
     d="m 1115.2419,946.25421 h 38.6692 v 43.0843 h -38.6692 z"
     id="rect142" />
  <path
     style="fill:#cfcdcf"
     d="m 1160.356,946.25421 h 38.6696 v 43.0843 h -38.6696 z"
     id="rect144" />
  <path
     style="fill:#cfcdcf"
     d="m 1205.4705,946.25421 h 38.6691 v 43.0843 h -38.6691 z"
     id="rect146" />
  <path
     style="fill:#cfcdcf"
     d="m 979.87988,995.51813 h 38.66922 v 43.08427 h -38.66922 z"
     id="rect148" />
  <path
     style="fill:#cfcdcf"
     d="m 933.5481,995.51813 h 38.6692 v 43.08427 h -38.6692 z"
     id="rect150" />
  <path
     style="fill:#cfcdcf"
     d="m 1024.9941,995.51813 h 38.6692 v 43.08427 h -38.6692 z"
     id="rect152" />
  <path
     style="fill:#cfcdcf"
     d="m 1070.1082,995.51813 h 38.6692 v 43.08427 h -38.6692 z"
     id="rect154" />
  <path
     style="fill:#cfcdcf"
     d="m 1115.2419,995.51813 h 38.6692 v 43.08427 h -38.6692 z"
     id="rect156" />
  <path
     style="fill:#cfcdcf"
     d="m 1160.356,995.51813 h 38.6696 v 43.08427 h -38.6696 z"
     id="rect158" />
  <path
     style="fill:#cfcdcf"
     d="m 1205.4705,995.51813 h 38.6691 v 43.08427 h -38.6691 z"
     id="rect160" />
  <path
     style="fill:#cfcdcf"
     d="m 979.87988,1094.0461 h 38.66922 v 43.0843 h -38.66922 z"
     id="rect162" />
  <path
     style="fill:#cfcdcf"
     d="m 933.5481,1094.0461 h 38.6692 v 43.0843 h -38.6692 z"
     id="rect164" />
  <path
     style="fill:#cfcdcf"
     d="m 1024.9941,1094.0461 h 38.6692 v 43.0843 h -38.6692 z"
     id="rect166" />
  <path
     style="fill:#cfcdcf"
     d="m 1070.1082,1094.0461 h 38.6692 v 43.0843 h -38.6692 z"
     id="rect168" />
  <path
     style="fill:#cfcdcf"
     d="m 1115.2419,1094.0461 h 38.6692 v 43.0843 h -38.6692 z"
     id="rect170" />
  <path
     style="fill:#cfcdcf"
     d="m 1160.356,1094.0461 h 38.6696 v 43.0843 h -38.6696 z"
     id="rect172" />
  <path
     style="fill:#cfcdcf"
     d="m 1205.4705,1094.0461 h 38.6691 v 43.0843 h -38.6691 z"
     id="rect174" />
  <path
     style="fill:#cfcdcf"
     d="m 979.87988,264.76901 h 38.66922 v 43.0843 h -38.66922 z"
     id="rect176" />
  <path
     style="fill:#cfcdcf"
     d="m 933.5481,264.76901 h 38.6692 v 43.0843 h -38.6692 z"
     id="rect178" />
  <path
     style="fill:#cfcdcf"
     d="m 1024.9941,264.76901 h 38.6692 v 43.0843 h -38.6692 z"
     id="rect180" />
  <path
     style="fill:#cfcdcf"
     d="m 1070.1082,264.76901 h 38.6692 v 43.0843 h -38.6692 z"
     id="rect182" />
  <path
     style="fill:#cfcdcf"
     d="m 1115.2419,264.76901 h 38.6692 v 43.0843 h -38.6692 z"
     id="rect184" />
  <path
     style="fill:#cfcdcf"
     d="m 1160.356,264.76901 h 38.6696 v 43.0843 h -38.6696 z"
     id="rect186" />
  <path
     style="fill:#cfcdcf"
     d="m 1205.4705,264.76901 h 38.6691 v 43.0843 h -38.6691 z"
     id="rect188" />
  <path
     style="fill:#cfcfd1"
     d="m 558.39917,554.87921 h 38.6692 v 43.0843 h -38.6692 z"
     id="rect190" />
  <path
     style="fill:#cfcfd1"
     d="m 512.06732,554.87921 h 38.6692 v 43.0843 h -38.6692 z"
     id="rect192" />
  <path
     style="fill:#cfcfd1"
     d="m 603.51343,554.87921 h 38.6692 v 43.0843 h -38.6692 z"
     id="rect194" />
  <path
     style="fill:#cfcfd1"
     d="m 648.62738,554.87921 h 38.6692 v 43.0843 h -38.6692 z"
     id="rect196" />
  <path
     style="fill:#cfcfd1"
     d="m 693.76123,554.87921 h 38.6692 v 43.0843 h -38.6692 z"
     id="rect198" />
  <path
     style="fill:#cfcfd1"
     d="m 738.87518,554.87921 h 38.6696 v 43.0843 h -38.6696 z"
     id="rect200" />
  <path
     style="fill:#cfcfd1"
     d="m 783.98962,554.87921 h 38.66911 v 43.0843 h -38.66911 z"
     id="rect202" />
  <path
     style="fill:#cfcfd1"
     d="m 558.39917,653.4071 h 38.6692 v 43.08431 h -38.6692 z"
     id="rect204" />
  <path
     style="fill:#cfcfd1"
     d="m 512.06732,653.4071 h 38.6692 v 43.08431 h -38.6692 z"
     id="rect206" />
  <path
     style="fill:#cfcfd1"
     d="m 603.51343,653.4071 h 38.6692 v 43.08431 h -38.6692 z"
     id="rect208" />
  <path
     style="fill:#cfcfd1"
     d="m 648.62738,653.4071 h 38.6692 v 43.08431 h -38.6692 z"
     id="rect210" />
  <path
     style="fill:#cfcfd1"
     d="m 693.76123,653.4071 h 38.6692 v 43.08431 h -38.6692 z"
     id="rect212" />
  <path
     style="fill:#cfcfd1"
     d="m 738.87518,653.4071 h 38.6696 v 43.08431 h -38.6696 z"
     id="rect214" />
  <path
     style="fill:#cfcfd1"
     d="m 783.98962,653.4071 h 38.66911 v 43.08431 h -38.66911 z"
     id="rect216" />
  <path
     style="fill:#cfcfd1"
     d="m 558.39917,702.67108 h 38.6692 v 43.0843 h -38.6692 z"
     id="rect218" />
  <path
     style="fill:#cfcfd1"
     d="m 512.06732,702.67108 h 38.6692 v 43.0843 h -38.6692 z"
     id="rect220" />
  <path
     style="fill:#cfcfd1"
     d="m 603.51343,702.67108 h 38.6692 v 43.0843 h -38.6692 z"
     id="rect222" />
  <path
     style="fill:#cfcfd1"
     d="m 648.62738,702.67108 h 38.6692 v 43.0843 h -38.6692 z"
     id="rect224" />
  <path
     style="fill:#cfcfd1"
     d="m 693.76123,702.67108 h 38.6692 v 43.0843 h -38.6692 z"
     id="rect226" />
  <path
     style="fill:#cfcfd1"
     d="m 738.87518,702.67108 h 38.6696 v 43.0843 h -38.6696 z"
     id="rect228" />
  <path
     style="fill:#cfcfd1"
     d="m 783.98962,702.67108 h 38.66911 v 43.0843 h -38.66911 z"
     id="rect230" />
  <path
     style="fill:#cfcfd1"
     d="m 558.39917,801.1991 h 38.6692 v 43.0843 h -38.6692 z"
     id="rect232" />
  <path
     style="fill:#cfcfd1"
     d="m 512.06732,801.1991 h 38.6692 v 43.0843 h -38.6692 z"
     id="rect234" />
  <path
     style="fill:#cfcfd1"
     d="m 603.51343,801.1991 h 38.6692 v 43.0843 h -38.6692 z"
     id="rect236" />
  <path
     style="fill:#cfcfd1"
     d="m 648.62738,801.1991 h 38.6692 v 43.0843 h -38.6692 z"
     id="rect238" />
  <path
     style="fill:#cfcfd1"
     d="m 693.76123,801.1991 h 38.6692 v 43.0843 h -38.6692 z"
     id="rect240" />
  <path
     style="fill:#cfcfd1"
     d="m 738.87518,801.1991 h 38.6696 v 43.0843 h -38.6696 z"
     id="rect242" />
  <path
     style="fill:#cfcfd1"
     d="m 783.98962,801.1991 h 38.66911 v 43.0843 h -38.66911 z"
     id="rect244" />
  <path
     style="fill:#cfcfd1"
     d="m 558.39917,850.46307 h 38.6692 v 43.0843 h -38.6692 z"
     id="rect246" />
  <path
     style="fill:#cfcfd1"
     d="m 512.06732,850.46307 h 38.6692 v 43.0843 h -38.6692 z"
     id="rect248" />
  <path
     style="fill:#cfcfd1"
     d="m 603.51343,850.46307 h 38.6692 v 43.0843 h -38.6692 z"
     id="rect250" />
  <path
     style="fill:#cfcfd1"
     d="m 648.62738,850.46307 h 38.6692 v 43.0843 h -38.6692 z"
     id="rect252" />
  <path
     style="fill:#cfcfd1"
     d="m 693.76123,850.46307 h 38.6692 v 43.0843 h -38.6692 z"
     id="rect254" />
  <path
     style="fill:#cfcfd1"
     d="m 738.87518,850.46307 h 38.6696 v 43.0843 h -38.6696 z"
     id="rect256" />
  <path
     style="fill:#cfcfd1"
     d="m 783.98962,850.46307 h 38.66911 v 43.0843 h -38.66911 z"
     id="rect258" />
  <path
     style="fill:#cfcfd1"
     d="m 558.39917,946.25421 h 38.6692 v 43.0843 h -38.6692 z"
     id="rect260" />
  <path
     style="fill:#cfcfd1"
     d="m 512.06732,946.25421 h 38.6692 v 43.0843 h -38.6692 z"
     id="rect262" />
  <path
     style="fill:#cfcfd1"
     d="m 603.51343,946.25421 h 38.6692 v 43.0843 h -38.6692 z"
     id="rect264" />
  <path
     style="fill:#cfcfd1"
     d="m 648.62738,946.25421 h 38.6692 v 43.0843 h -38.6692 z"
     id="rect266" />
  <path
     style="fill:#cfcfd1"
     d="m 693.76123,946.25421 h 38.6692 v 43.0843 h -38.6692 z"
     id="rect268" />
  <path
     style="fill:#cfcfd1"
     d="m 738.87518,946.25421 h 38.6696 v 43.0843 h -38.6696 z"
     id="rect270" />
  <path
     style="fill:#cfcfd1"
     d="m 783.98962,946.25421 h 38.66911 v 43.0843 h -38.66911 z"
     id="rect272" />
  <path
     style="fill:#cfcfd1"
     d="m 558.39917,995.51813 h 38.6692 v 43.08427 h -38.6692 z"
     id="rect274" />
  <path
     style="fill:#cfcfd1"
     d="m 512.06732,995.51813 h 38.6692 v 43.08427 h -38.6692 z"
     id="rect276" />
  <path
     style="fill:#cfcfd1"
     d="m 603.51343,995.51813 h 38.6692 v 43.08427 h -38.6692 z"
     id="rect278" />
  <path
     style="fill:#cfcfd1"
     d="m 648.62738,995.51813 h 38.6692 v 43.08427 h -38.6692 z"
     id="rect280" />
  <path
     style="fill:#cfcfd1"
     d="m 693.76123,995.51813 h 38.6692 v 43.08427 h -38.6692 z"
     id="rect282" />
  <path
     style="fill:#cfcfd1"
     d="m 738.87518,995.51813 h 38.6696 v 43.08427 h -38.6696 z"
     id="rect284" />
  <path
     style="fill:#cfcfd1"
     d="m 783.98962,995.51813 h 38.66911 v 43.08427 h -38.66911 z"
     id="rect286" />
  <path
     style="fill:#cfcfd1"
     d="m 558.39917,1094.0461 h 38.6692 v 43.0843 h -38.6692 z"
     id="rect288" />
  <path
     style="fill:#cfcfd1"
     d="m 512.06732,1094.0461 h 38.6692 v 43.0843 h -38.6692 z"
     id="rect290" />
  <path
     style="fill:#cfcfd1"
     d="m 603.51343,1094.0461 h 38.6692 v 43.0843 h -38.6692 z"
     id="rect292" />
  <path
     style="fill:#cfcfd1"
     d="m 648.62738,1094.0461 h 38.6692 v 43.0843 h -38.6692 z"
     id="rect294" />
  <path
     style="fill:#cfcfd1"
     d="m 693.76123,1094.0461 h 38.6692 v 43.0843 h -38.6692 z"
     id="rect296" />
  <path
     style="fill:#cfcfd1"
     d="m 738.87518,1094.0461 h 38.6696 v 43.0843 h -38.6696 z"
     id="rect298" />
  <path
     style="fill:#cfcfd1"
     d="m 783.98962,1094.0461 h 38.66911 v 43.0843 h -38.66911 z"
     id="rect300" />
  <path
     style="fill:#cfcdcf"
     d="m 1249.2606,360.56009 h 38.6691 v 43.0843 h -38.6691 z"
     id="rect302" />
  <path
     style="fill:#cfcdcf"
     d="m 1249.2606,409.8241 h 38.6691 v 43.0843 h -38.6691 z"
     id="rect304" />
  <path
     style="fill:#cfcdcf"
     d="m 1249.2606,505.6152 h 38.6691 v 43.0843 h -38.6691 z"
     id="rect306" />
  <path
     style="fill:#cfcdcf"
     d="m 1249.2606,554.87921 h 38.6691 v 43.0843 h -38.6691 z"
     id="rect308" />
  <path
     style="fill:#cfcdcf"
     d="m 1249.2606,653.4071 h 38.6691 v 43.08431 h -38.6691 z"
     id="rect310" />
  <path
     style="fill:#cfcdcf"
     d="m 1249.2606,702.67108 h 38.6691 v 43.0843 h -38.6691 z"
     id="rect312" />
  <path
     style="fill:#cfcdcf"
     d="m 1249.2606,801.1991 h 38.6691 v 43.0843 h -38.6691 z"
     id="rect314" />
  <path
     style="fill:#cfcdcf"
     d="m 1249.2606,850.46307 h 38.6691 v 43.0843 h -38.6691 z"
     id="rect316" />
  <path
     style="fill:#cfcdcf"
     d="m 1249.2606,946.25421 h 38.6691 v 43.0843 h -38.6691 z"
     id="rect318" />
  <path
     style="fill:#cfcdcf"
     d="m 1249.2606,995.51813 h 38.6691 v 43.08427 h -38.6691 z"
     id="rect320" />
  <path
     style="fill:#cfcdcf"
     d="m 1249.2606,1094.0461 h 38.6691 v 43.0843 h -38.6691 z"
     id="rect322" />
  <path
     style="fill:#cfcdcf"
     d="m 1249.2606,264.76901 h 38.6691 v 43.0843 h -38.6691 z"
     id="rect324" />
  <path
     style="fill:#cfced0"
     d="m 1445.1509,360.56009 h 38.6692 v 43.0843 h -38.6692 z"
     id="rect326" />
  <path
     style="fill:#cfced0"
     d="m 1398.8191,360.56009 h 38.6692 v 43.0843 h -38.6692 z"
     id="rect328" />
  <path
     style="fill:#cfced0"
     d="m 1490.2651,360.56009 h 38.6692 v 43.0843 h -38.6692 z"
     id="rect330" />
  <path
     style="fill:#cfced0"
     d="m 1535.3792,360.56009 h 38.6692 v 43.0843 h -38.6692 z"
     id="rect332" />
  <path
     style="fill:#cfced0"
     d="m 1580.5129,360.56009 h 38.6692 v 43.0843 h -38.6692 z"
     id="rect334" />
  <path
     style="fill:#cfced0"
     d="m 1625.627,360.56009 h 38.6696 v 43.0843 h -38.6696 z"
     id="rect336" />
  <path
     style="fill:#cfced0"
     d="m 1670.7415,360.56009 h 38.6691 v 43.0843 h -38.6691 z"
     id="rect338" />
  <path
     style="fill:#cfced0"
     d="m 1445.1509,409.8241 h 38.6692 v 43.0843 h -38.6692 z"
     id="rect340" />
  <path
     style="fill:#cfced0"
     d="m 1398.8191,409.8241 h 38.6692 v 43.0843 h -38.6692 z"
     id="rect342" />
  <path
     style="fill:#cfced0"
     d="m 1490.2651,409.8241 h 38.6692 v 43.0843 h -38.6692 z"
     id="rect344" />
  <path
     style="fill:#cfced0"
     d="m 1535.3792,409.8241 h 38.6692 v 43.0843 h -38.6692 z"
     id="rect346" />
  <path
     style="fill:#cfced0"
     d="m 1580.5129,409.8241 h 38.6692 v 43.0843 h -38.6692 z"
     id="rect348" />
  <path
     style="fill:#cfced0"
     d="m 1625.627,409.8241 h 38.6696 v 43.0843 h -38.6696 z"
     id="rect350" />
  <path
     style="fill:#cfced0"
     d="m 1670.7415,409.8241 h 38.6691 v 43.0843 h -38.6691 z"
     id="rect352" />
  <path
     style="fill:#cfced0"
     d="m 1445.1509,505.6152 h 38.6692 v 43.0843 h -38.6692 z"
     id="rect354" />
  <path
     style="fill:#cfced0"
     d="m 1398.8191,505.6152 h 38.6692 v 43.0843 h -38.6692 z"
     id="rect356" />
  <path
     style="fill:#cfced0"
     d="m 1490.2651,505.6152 h 38.6692 v 43.0843 h -38.6692 z"
     id="rect358" />
  <path
     style="fill:#cfced0"
     d="m 1535.3792,505.6152 h 38.6692 v 43.0843 h -38.6692 z"
     id="rect360" />
  <path
     style="fill:#cfced0"
     d="m 1580.5129,505.6152 h 38.6692 v 43.0843 h -38.6692 z"
     id="rect362" />
  <path
     style="fill:#cfced0"
     d="m 1625.627,505.6152 h 38.6696 v 43.0843 h -38.6696 z"
     id="rect364" />
  <path
     style="fill:#cfced0"
     d="m 1670.7415,505.6152 h 38.6691 v 43.0843 h -38.6691 z"
     id="rect366" />
  <path
     style="fill:#cfced0"
     d="m 1445.1509,554.87921 h 38.6692 v 43.0843 h -38.6692 z"
     id="rect368" />
  <path
     style="fill:#cfced0"
     d="m 1398.8191,554.87921 h 38.6692 v 43.0843 h -38.6692 z"
     id="rect370" />
  <path
     style="fill:#cfced0"
     d="m 1490.2651,554.87921 h 38.6692 v 43.0843 h -38.6692 z"
     id="rect372" />
  <path
     style="fill:#cfced0"
     d="m 1535.3792,554.87921 h 38.6692 v 43.0843 h -38.6692 z"
     id="rect374" />
  <path
     style="fill:#cfced0"
     d="m 1580.5129,554.87921 h 38.6692 v 43.0843 h -38.6692 z"
     id="rect376" />
  <path
     style="fill:#cfced0"
     d="m 1625.627,554.87921 h 38.6696 v 43.0843 h -38.6696 z"
     id="rect378" />
  <path
     style="fill:#cfced0"
     d="m 1670.7415,554.87921 h 38.6691 v 43.0843 h -38.6691 z"
     id="rect380" />
  <path
     style="fill:#cfced0"
     d="m 1445.1509,653.4071 h 38.6692 v 43.08431 h -38.6692 z"
     id="rect382" />
  <path
     style="fill:#cfced0"
     d="m 1398.8191,653.4071 h 38.6692 v 43.08431 h -38.6692 z"
     id="rect384" />
  <path
     style="fill:#cfced0"
     d="m 1490.2651,653.4071 h 38.6692 v 43.08431 h -38.6692 z"
     id="rect386" />
  <path
     style="fill:#cfced0"
     d="m 1535.3792,653.4071 h 38.6692 v 43.08431 h -38.6692 z"
     id="rect388" />
  <path
     style="fill:#cfced0"
     d="m 1580.5129,653.4071 h 38.6692 v 43.08431 h -38.6692 z"
     id="rect390" />
  <path
     style="fill:#cfced0"
     d="m 1625.627,653.4071 h 38.6696 v 43.08431 h -38.6696 z"
     id="rect392" />
  <path
     style="fill:#cfced0"
     d="m 1670.7415,653.4071 h 38.6691 v 43.08431 h -38.6691 z"
     id="rect394" />
  <path
     style="fill:#cfced0"
     d="m 1445.1509,702.67108 h 38.6692 v 43.0843 h -38.6692 z"
     id="rect396" />
  <path
     style="fill:#cfced0"
     d="m 1398.8191,702.67108 h 38.6692 v 43.0843 h -38.6692 z"
     id="rect398" />
  <path
     style="fill:#cfced0"
     d="m 1490.2651,702.67108 h 38.6692 v 43.0843 h -38.6692 z"
     id="rect400" />
  <path
     style="fill:#cfced0"
     d="m 1535.3792,702.67108 h 38.6692 v 43.0843 h -38.6692 z"
     id="rect402" />
  <path
     style="fill:#cfced0"
     d="m 1580.5129,702.67108 h 38.6692 v 43.0843 h -38.6692 z"
     id="rect404" />
  <path
     style="fill:#cfced0"
     d="m 1625.627,702.67108 h 38.6696 v 43.0843 h -38.6696 z"
     id="rect406" />
  <path
     style="fill:#cfced0"
     d="m 1670.7415,702.67108 h 38.6691 v 43.0843 h -38.6691 z"
     id="rect408" />
  <path
     style="fill:#cfced0"
     d="m 1445.1509,801.1991 h 38.6692 v 43.0843 h -38.6692 z"
     id="rect410" />
  <path
     style="fill:#cfced0"
     d="m 1398.8191,801.1991 h 38.6692 v 43.0843 h -38.6692 z"
     id="rect412" />
  <path
     style="fill:#cfced0"
     d="m 1490.2651,801.1991 h 38.6692 v 43.0843 h -38.6692 z"
     id="rect414" />
  <path
     style="fill:#cfced0"
     d="m 1535.3792,801.1991 h 38.6692 v 43.0843 h -38.6692 z"
     id="rect416" />
  <path
     style="fill:#cfced0"
     d="m 1580.5129,801.1991 h 38.6692 v 43.0843 h -38.6692 z"
     id="rect418" />
  <path
     style="fill:#cfced0"
     d="m 1625.627,801.1991 h 38.6696 v 43.0843 h -38.6696 z"
     id="rect420" />
  <path
     style="fill:#cfced0"
     d="m 1670.7415,801.1991 h 38.6691 v 43.0843 h -38.6691 z"
     id="rect422" />
  <path
     style="fill:#cfced0"
     d="m 1445.1509,850.46307 h 38.6692 v 43.0843 h -38.6692 z"
     id="rect424" />
  <path
     style="fill:#cfced0"
     d="m 1398.8191,850.46307 h 38.6692 v 43.0843 h -38.6692 z"
     id="rect426" />
  <path
     style="fill:#cfced0"
     d="m 1490.2651,850.46307 h 38.6692 v 43.0843 h -38.6692 z"
     id="rect428" />
  <path
     style="fill:#cfced0"
     d="m 1535.3792,850.46307 h 38.6692 v 43.0843 h -38.6692 z"
     id="rect430" />
  <path
     style="fill:#cfced0"
     d="m 1580.5129,850.46307 h 38.6692 v 43.0843 h -38.6692 z"
     id="rect432" />
  <path
     style="fill:#cfced0"
     d="m 1625.627,850.46307 h 38.6696 v 43.0843 h -38.6696 z"
     id="rect434" />
  <path
     style="fill:#cfced0"
     d="m 1670.7415,850.46307 h 38.6691 v 43.0843 h -38.6691 z"
     id="rect436" />
  <path
     style="fill:#cfced0"
     d="m 1445.1509,946.25421 h 38.6692 v 43.0843 h -38.6692 z"
     id="rect438" />
  <path
     style="fill:#cfced0"
     d="m 1398.8191,946.25421 h 38.6692 v 43.0843 h -38.6692 z"
     id="rect440" />
  <path
     style="fill:#cfced0"
     d="m 1490.2651,946.25421 h 38.6692 v 43.0843 h -38.6692 z"
     id="rect442" />
  <path
     style="fill:#cfced0"
     d="m 1535.3792,946.25421 h 38.6692 v 43.0843 h -38.6692 z"
     id="rect444" />
  <path
     style="fill:#cfced0"
     d="m 1580.5129,946.25421 h 38.6692 v 43.0843 h -38.6692 z"
     id="rect446" />
  <path
     style="fill:#cfced0"
     d="m 1625.627,946.25421 h 38.6696 v 43.0843 h -38.6696 z"
     id="rect448" />
  <path
     style="fill:#cfced0"
     d="m 1670.7415,946.25421 h 38.6691 v 43.0843 h -38.6691 z"
     id="rect450" />
  <path
     style="fill:#cfced0"
     d="m 1445.1509,995.51813 h 38.6692 v 43.08427 h -38.6692 z"
     id="rect452" />
  <path
     style="fill:#cfced0"
     d="m 1398.8191,995.51813 h 38.6692 v 43.08427 h -38.6692 z"
     id="rect454" />
  <path
     style="fill:#cfced0"
     d="m 1490.2651,995.51813 h 38.6692 v 43.08427 h -38.6692 z"
     id="rect456" />
  <path
     style="fill:#cfced0"
     d="m 1535.3792,995.51813 h 38.6692 v 43.08427 h -38.6692 z"
     id="rect458" />
  <path
     style="fill:#cfced0"
     d="m 1580.5129,995.51813 h 38.6692 v 43.08427 h -38.6692 z"
     id="rect460" />
  <path
     style="fill:#cfced0"
     d="m 1625.627,995.51813 h 38.6696 v 43.08427 h -38.6696 z"
     id="rect462" />
  <path
     style="fill:#cfced0"
     d="m 1670.7415,995.51813 h 38.6691 v 43.08427 h -38.6691 z"
     id="rect464" />
  <path
     style="fill:#cfced0"
     d="m 1445.1509,1094.0461 h 38.6692 v 43.0843 h -38.6692 z"
     id="rect466" />
  <path
     style="fill:#cfced0"
     d="m 1398.8191,1094.0461 h 38.6692 v 43.0843 h -38.6692 z"
     id="rect468" />
  <path
     style="fill:#cfced0"
     d="m 1490.2651,1094.0461 h 38.6692 v 43.0843 h -38.6692 z"
     id="rect470" />
  <path
     style="fill:#cfced0"
     d="m 1535.3792,1094.0461 h 38.6692 v 43.0843 h -38.6692 z"
     id="rect472" />
  <path
     style="fill:#cfced0"
     d="m 1580.5129,1094.0461 h 38.6692 v 43.0843 h -38.6692 z"
     id="rect474" />
  <path
     style="fill:#cfced0"
     d="m 1625.627,1094.0461 h 38.6696 v 43.0843 h -38.6696 z"
     id="rect476" />
  <path
     style="fill:#cfced0"
     d="m 1670.7415,1094.0461 h 38.6691 v 43.0843 h -38.6691 z"
     id="rect478" />
  <path
     style="fill:#cfced0"
     d="m 1445.1509,264.76901 h 38.6692 v 43.0843 h -38.6692 z"
     id="rect480" />
  <path
     style="fill:#cfced0"
     d="m 1398.8191,264.76901 h 38.6692 v 43.0843 h -38.6692 z"
     id="rect482" />
  <path
     style="fill:#cfced0"
     d="m 1490.2651,264.76901 h 38.6692 v 43.0843 h -38.6692 z"
     id="rect484" />
  <path
     style="fill:#cfced0"
     d="m 1535.3792,264.76901 h 38.6692 v 43.0843 h -38.6692 z"
     id="rect486" />
  <path
     style="fill:#cfced0"
     d="m 1580.5129,264.76901 h 38.6692 v 43.0843 h -38.6692 z"
     id="rect488" />
  <path
     style="fill:#cfced0"
     d="m 1625.627,264.76901 h 38.6696 v 43.0843 h -38.6696 z"
     id="rect490" />
  <path
     style="fill:#cfced0"
     d="m 1670.7415,264.76901 h 38.6691 v 43.0843 h -38.6691 z"
     id="rect492" />
  <path
     style="fill:#cfced0"
     d="m 1714.5316,360.56009 h 38.6691 v 43.0843 h -38.6691 z"
     id="rect494" />
  <path
     style="fill:#cfced0"
     d="m 1714.5316,409.8241 h 38.6691 v 43.0843 h -38.6691 z"
     id="rect496" />
  <path
     style="fill:#cfced0"
     d="m 1714.5316,505.6152 h 38.6691 v 43.0843 h -38.6691 z"
     id="rect498" />
  <path
     style="fill:#cfced0"
     d="m 1714.5316,554.87921 h 38.6691 v 43.0843 h -38.6691 z"
     id="rect500" />
  <path
     style="fill:#cfced0"
     d="m 1714.5316,653.4071 h 38.6691 v 43.08431 h -38.6691 z"
     id="rect502" />
  <path
     style="fill:#cfced0"
     d="m 1714.5316,702.67108 h 38.6691 v 43.0843 h -38.6691 z"
     id="rect504" />
  <path
     style="fill:#cfced0"
     d="m 1714.5316,801.1991 h 38.6691 v 43.0843 h -38.6691 z"
     id="rect506" />
  <path
     style="fill:#cfced0"
     d="m 1714.5316,850.46307 h 38.6691 v 43.0843 h -38.6691 z"
     id="rect508" />
  <path
     style="fill:#cfced0"
     d="m 1714.5316,946.25421 h 38.6691 v 43.0843 h -38.6691 z"
     id="rect510" />
  <path
     style="fill:#cfced0"
     d="m 1714.5316,995.51813 h 38.6691 v 43.08427 h -38.6691 z"
     id="rect512" />
  <path
     style="fill:#cfced0"
     d="m 1714.5316,1094.0461 h 38.6691 v 43.0843 h -38.6691 z"
     id="rect514" />
  <path
     style="fill:#cfced0"
     d="m 1714.5316,264.76901 h 38.6691 v 43.0843 h -38.6691 z"
     id="rect516" />
  <path
     style="fill:#cfced0"
     d="m 1910.4219,360.56009 h 38.6692 v 43.0843 h -38.6692 z"
     id="rect518" />
  <path
     style="fill:#cfced0"
     d="m 1864.09,360.56009 h 38.6692 v 43.0843 H 1864.09 Z"
     id="rect520" />
  <path
     style="fill:#cfced0"
     d="m 1955.5361,360.56009 h 38.6692 v 43.0843 h -38.6692 z"
     id="rect522" />
  <path
     style="fill:#cfced0"
     d="m 2000.6501,360.56009 h 38.6692 v 43.0843 h -38.6692 z"
     id="rect524" />
  <path
     style="fill:#cfced0"
     d="m 2045.7839,360.56009 h 38.6692 v 43.0843 h -38.6692 z"
     id="rect526" />
  <path
     style="fill:#cfced0"
     d="m 2090.8979,360.56009 h 38.6697 v 43.0843 h -38.6697 z"
     id="rect528" />
  <path
     style="fill:#cfced0"
     d="m 2136.0122,360.56009 h 38.6691 v 43.0843 h -38.6691 z"
     id="rect530" />
  <path
     style="fill:#cfced0"
     d="m 1910.4219,409.8241 h 38.6692 v 43.0843 h -38.6692 z"
     id="rect532" />
  <path
     style="fill:#cfced0"
     d="m 1864.09,409.8241 h 38.6692 v 43.0843 H 1864.09 Z"
     id="rect534" />
  <path
     style="fill:#cfced0"
     d="m 1955.5361,409.8241 h 38.6692 v 43.0843 h -38.6692 z"
     id="rect536" />
  <path
     style="fill:#cfced0"
     d="m 2000.6501,409.8241 h 38.6692 v 43.0843 h -38.6692 z"
     id="rect538" />
  <path
     style="fill:#cfced0"
     d="m 2045.7839,409.8241 h 38.6692 v 43.0843 h -38.6692 z"
     id="rect540" />
  <path
     style="fill:#cfced0"
     d="m 2090.8979,409.8241 h 38.6697 v 43.0843 h -38.6697 z"
     id="rect542" />
  <path
     style="fill:#cfced0"
     d="m 2136.0122,409.8241 h 38.6691 v 43.0843 h -38.6691 z"
     id="rect544" />
  <path
     style="fill:#cfced0"
     d="m 1910.4219,505.6152 h 38.6692 v 43.0843 h -38.6692 z"
     id="rect546" />
  <path
     style="fill:#cfced0"
     d="m 1864.09,505.6152 h 38.6692 v 43.0843 H 1864.09 Z"
     id="rect548" />
  <path
     style="fill:#cfced0"
     d="m 1955.5361,505.6152 h 38.6692 v 43.0843 h -38.6692 z"
     id="rect550" />
  <path
     style="fill:#cfced0"
     d="m 2000.6501,505.6152 h 38.6692 v 43.0843 h -38.6692 z"
     id="rect552" />
  <path
     style="fill:#cfced0"
     d="m 2045.7839,505.6152 h 38.6692 v 43.0843 h -38.6692 z"
     id="rect554" />
  <path
     style="fill:#cfced0"
     d="m 2090.8979,505.6152 h 38.6697 v 43.0843 h -38.6697 z"
     id="rect556" />
  <path
     style="fill:#cfced0"
     d="m 2136.0122,505.6152 h 38.6691 v 43.0843 h -38.6691 z"
     id="rect558" />
  <path
     style="fill:#cfced0"
     d="m 1910.4219,554.87921 h 38.6692 v 43.0843 h -38.6692 z"
     id="rect560" />
  <path
     style="fill:#cfced0"
     d="m 1864.09,554.87921 h 38.6692 v 43.0843 H 1864.09 Z"
     id="rect562" />
  <path
     style="fill:#cfced0"
     d="m 1955.5361,554.87921 h 38.6692 v 43.0843 h -38.6692 z"
     id="rect564" />
  <path
     style="fill:#cfced0"
     d="m 2000.6501,554.87921 h 38.6692 v 43.0843 h -38.6692 z"
     id="rect566" />
  <path
     style="fill:#cfced0"
     d="m 2045.7839,554.87921 h 38.6692 v 43.0843 h -38.6692 z"
     id="rect568" />
  <path
     style="fill:#cfced0"
     d="m 2090.8979,554.87921 h 38.6697 v 43.0843 h -38.6697 z"
     id="rect570" />
  <path
     style="fill:#cfced0"
     d="m 2136.0122,554.87921 h 38.6691 v 43.0843 h -38.6691 z"
     id="rect572" />
  <path
     style="fill:#cfced0"
     d="m 1910.4219,653.4071 h 38.6692 v 43.08431 h -38.6692 z"
     id="rect574" />
  <path
     style="fill:#cfced0"
     d="m 1864.09,653.4071 h 38.6692 v 43.08431 H 1864.09 Z"
     id="rect576" />
  <path
     style="fill:#cfced0"
     d="m 1955.5361,653.4071 h 38.6692 v 43.08431 h -38.6692 z"
     id="rect578" />
  <path
     style="fill:#cfced0"
     d="m 2000.6501,653.4071 h 38.6692 v 43.08431 h -38.6692 z"
     id="rect580" />
  <path
     style="fill:#cfced0"
     d="m 2045.7839,653.4071 h 38.6692 v 43.08431 h -38.6692 z"
     id="rect582" />
  <path
     style="fill:#cfced0"
     d="m 2090.8979,653.4071 h 38.6697 v 43.08431 h -38.6697 z"
     id="rect584" />
  <path
     style="fill:#cfced0"
     d="m 2136.0122,653.4071 h 38.6691 v 43.08431 h -38.6691 z"
     id="rect586" />
  <path
     style="fill:#cfced0"
     d="m 1910.4219,702.67108 h 38.6692 v 43.0843 h -38.6692 z"
     id="rect588" />
  <path
     style="fill:#cfced0"
     d="m 1864.09,702.67108 h 38.6692 v 43.0843 H 1864.09 Z"
     id="rect590" />
  <path
     style="fill:#cfced0"
     d="m 1955.5361,702.67108 h 38.6692 v 43.0843 h -38.6692 z"
     id="rect592" />
  <path
     style="fill:#cfced0"
     d="m 2000.6501,702.67108 h 38.6692 v 43.0843 h -38.6692 z"
     id="rect594" />
  <path
     style="fill:#cfced0"
     d="m 2045.7839,702.67108 h 38.6692 v 43.0843 h -38.6692 z"
     id="rect596" />
  <path
     style="fill:#cfced0"
     d="m 2090.8979,702.67108 h 38.6697 v 43.0843 h -38.6697 z"
     id="rect598" />
  <path
     style="fill:#cfced0"
     d="m 2136.0122,702.67108 h 38.6691 v 43.0843 h -38.6691 z"
     id="rect600" />
  <path
     style="fill:#cfced0"
     d="m 1910.4219,801.1991 h 38.6692 v 43.0843 h -38.6692 z"
     id="rect602" />
  <path
     style="fill:#cfced0"
     d="m 1864.09,801.1991 h 38.6692 v 43.0843 H 1864.09 Z"
     id="rect604" />
  <path
     style="fill:#cfced0"
     d="m 1955.5361,801.1991 h 38.6692 v 43.0843 h -38.6692 z"
     id="rect606" />
  <path
     style="fill:#cfced0"
     d="m 2000.6501,801.1991 h 38.6692 v 43.0843 h -38.6692 z"
     id="rect608" />
  <path
     style="fill:#cfced0"
     d="m 2045.7839,801.1991 h 38.6692 v 43.0843 h -38.6692 z"
     id="rect610" />
  <path
     style="fill:#cfced0"
     d="m 2090.8979,801.1991 h 38.6697 v 43.0843 h -38.6697 z"
     id="rect612" />
  <path
     style="fill:#cfced0"
     d="m 2136.0122,801.1991 h 38.6691 v 43.0843 h -38.6691 z"
     id="rect614" />
  <path
     style="fill:#cfced0"
     d="m 1910.4219,850.46307 h 38.6692 v 43.0843 h -38.6692 z"
     id="rect616" />
  <path
     style="fill:#cfced0"
     d="m 1864.09,850.46307 h 38.6692 v 43.0843 H 1864.09 Z"
     id="rect618" />
  <path
     style="fill:#cfced0"
     d="m 1955.5361,850.46307 h 38.6692 v 43.0843 h -38.6692 z"
     id="rect620" />
  <path
     style="fill:#cfced0"
     d="m 2000.6501,850.46307 h 38.6692 v 43.0843 h -38.6692 z"
     id="rect622" />
  <path
     style="fill:#cfced0"
     d="m 2045.7839,850.46307 h 38.6692 v 43.0843 h -38.6692 z"
     id="rect624" />
  <path
     style="fill:#cfced0"
     d="m 2090.8979,850.46307 h 38.6697 v 43.0843 h -38.6697 z"
     id="rect626" />
  <path
     style="fill:#cfced0"
     d="m 2136.0122,850.46307 h 38.6691 v 43.0843 h -38.6691 z"
     id="rect628" />
  <path
     style="fill:#cfced0"
     d="m 1910.4219,946.25421 h 38.6692 v 43.0843 h -38.6692 z"
     id="rect630" />
  <path
     style="fill:#cfced0"
     d="m 1864.09,946.25421 h 38.6692 v 43.0843 H 1864.09 Z"
     id="rect632" />
  <path
     style="fill:#cfced0"
     d="m 1955.5361,946.25421 h 38.6692 v 43.0843 h -38.6692 z"
     id="rect634" />
  <path
     style="fill:#cfced0"
     d="m 2000.6501,946.25421 h 38.6692 v 43.0843 h -38.6692 z"
     id="rect636" />
  <path
     style="fill:#cfced0"
     d="m 2045.7839,946.25421 h 38.6692 v 43.0843 h -38.6692 z"
     id="rect638" />
  <path
     style="fill:#cfced0"
     d="m 2090.8979,946.25421 h 38.6697 v 43.0843 h -38.6697 z"
     id="rect640" />
  <path
     style="fill:#cfced0"
     d="m 2136.0122,946.25421 h 38.6691 v 43.0843 h -38.6691 z"
     id="rect642" />
  <path
     style="fill:#cfced0"
     d="m 1910.4219,995.51813 h 38.6692 v 43.08427 h -38.6692 z"
     id="rect644" />
  <path
     style="fill:#cfced0"
     d="m 1864.09,995.51813 h 38.6692 v 43.08427 H 1864.09 Z"
     id="rect646" />
  <path
     style="fill:#cfced0"
     d="m 1955.5361,995.51813 h 38.6692 v 43.08427 h -38.6692 z"
     id="rect648" />
  <path
     style="fill:#cfced0"
     d="m 2000.6501,995.51813 h 38.6692 v 43.08427 h -38.6692 z"
     id="rect650" />
  <path
     style="fill:#cfced0"
     d="m 2045.7839,995.51813 h 38.6692 v 43.08427 h -38.6692 z"
     id="rect652" />
  <path
     style="fill:#cfced0"
     d="m 2090.8979,995.51813 h 38.6697 v 43.08427 h -38.6697 z"
     id="rect654" />
  <path
     style="fill:#cfced0"
     d="m 2136.0122,995.51813 h 38.6691 v 43.08427 h -38.6691 z"
     id="rect656" />
  <path
     style="fill:#cfced0"
     d="m 1910.4219,1094.0461 h 38.6692 v 43.0843 h -38.6692 z"
     id="rect658" />
  <path
     style="fill:#cfced0"
     d="m 1864.09,1094.0461 h 38.6692 v 43.0843 H 1864.09 Z"
     id="rect660" />
  <path
     style="fill:#cfced0"
     d="m 1955.5361,1094.0461 h 38.6692 v 43.0843 h -38.6692 z"
     id="rect662" />
  <path
     style="fill:#cfced0"
     d="m 2000.6501,1094.0461 h 38.6692 v 43.0843 h -38.6692 z"
     id="rect664" />
  <path
     style="fill:#cfced0"
     d="m 2045.7839,1094.0461 h 38.6692 v 43.0843 h -38.6692 z"
     id="rect666" />
  <path
     style="fill:#cfced0"
     d="m 2090.8979,1094.0461 h 38.6697 v 43.0843 h -38.6697 z"
     id="rect668" />
  <path
     style="fill:#cfced0"
     d="m 2136.0122,1094.0461 h 38.6691 v 43.0843 h -38.6691 z"
     id="rect670" />
  <path
     style="fill:#cfced0"
     d="m 1910.4219,264.76901 h 38.6692 v 43.0843 h -38.6692 z"
     id="rect672" />
  <path
     style="fill:#cfced0"
     d="m 1864.09,264.76901 h 38.6692 v 43.0843 H 1864.09 Z"
     id="rect674" />
  <path
     style="fill:#cfced0"
     d="m 1955.5361,264.76901 h 38.6692 v 43.0843 h -38.6692 z"
     id="rect676" />
  <path
     style="fill:#cfced0"
     d="m 2000.6501,264.76901 h 38.6692 v 43.0843 h -38.6692 z"
     id="rect678" />
  <path
     style="fill:#cfced0"
     d="m 2045.7839,264.76901 h 38.6692 v 43.0843 h -38.6692 z"
     id="rect680" />
  <path
     style="fill:#cfced0"
     d="m 2090.8979,264.76901 h 38.6697 v 43.0843 h -38.6697 z"
     id="rect682" />
  <path
     style="fill:#cfced0"
     d="m 2136.0122,264.76901 h 38.6691 v 43.0843 h -38.6691 z"
     id="rect684" />
  <path
     style="fill:#cfced0"
     d="m 2179.8025,360.56009 h 38.6691 v 43.0843 h -38.6691 z"
     id="rect686" />
  <path
     style="fill:#cfced0"
     d="m 2179.8025,409.8241 h 38.6691 v 43.0843 h -38.6691 z"
     id="rect688" />
  <path
     style="fill:#cfced0"
     d="m 2179.8025,505.6152 h 38.6691 v 43.0843 h -38.6691 z"
     id="rect690" />
  <path
     style="fill:#cfced0"
     d="m 2179.8025,554.87921 h 38.6691 v 43.0843 h -38.6691 z"
     id="rect692" />
  <path
     style="fill:#cfced0"
     d="m 2179.8025,653.4071 h 38.6691 v 43.08431 h -38.6691 z"
     id="rect694" />
  <path
     style="fill:#cfced0"
     d="m 2179.8025,702.67108 h 38.6691 v 43.0843 h -38.6691 z"
     id="rect696" />
  <path
     style="fill:#cfced0"
     d="m 2179.8025,801.1991 h 38.6691 v 43.0843 h -38.6691 z"
     id="rect698" />
  <path
     style="fill:#cfced0"
     d="m 2179.8025,850.46307 h 38.6691 v 43.0843 h -38.6691 z"
     id="rect700" />
  <path
     style="fill:#cfced0"
     d="m 2179.8025,946.25421 h 38.6691 v 43.0843 h -38.6691 z"
     id="rect702" />
  <path
     style="fill:#cfced0"
     d="m 2179.8025,995.51813 h 38.6691 v 43.08427 h -38.6691 z"
     id="rect704" />
  <path
     style="fill:#cfced0"
     d="m 2179.8025,1094.0461 h 38.6691 v 43.0843 h -38.6691 z"
     id="rect706" />
  <path
     style="fill:#cfced0"
     d="m 2179.8025,264.76901 h 38.6691 v 43.0843 h -38.6691 z"
     id="rect708" />
  <path
     style="fill:#cfcfd1"
     d="m 558.39917,240.13699 h 38.6692 v 43.0843 h -38.6692 z"
     id="rect710" />
  <path
     style="fill:#cfcfd1"
     d="m 512.06732,240.13699 h 38.6692 v 43.0843 h -38.6692 z"
     id="rect712" />
  <path
     style="fill:#cfcfd1"
     d="m 603.51343,240.13699 h 38.6692 v 43.0843 h -38.6692 z"
     id="rect714" />
  <path
     style="fill:#cfcfd1"
     d="m 648.62738,240.13699 h 38.6692 v 43.0843 h -38.6692 z"
     id="rect716" />
  <path
     style="fill:#cfcfd1"
     d="m 693.76123,240.13699 h 38.6692 v 43.0843 h -38.6692 z"
     id="rect718" />
  <path
     style="fill:#cfcfd1"
     d="m 738.87518,240.13699 h 38.6696 v 43.0843 h -38.6696 z"
     id="rect720" />
  <path
     style="fill:#cfcfd1"
     d="m 558.39917,338.66501 h 38.6692 v 43.0843 h -38.6692 z"
     id="rect722" />
  <path
     style="fill:#cfcfd1"
     d="m 512.06732,338.66501 h 38.6692 v 43.0843 h -38.6692 z"
     id="rect724" />
  <path
     style="fill:#cfcfd1"
     d="m 603.51343,338.66501 h 38.6692 v 43.0843 h -38.6692 z"
     id="rect726" />
  <path
     style="fill:#cfcfd1"
     d="m 648.62738,338.66501 h 38.6692 v 43.0843 h -38.6692 z"
     id="rect728" />
  <path
     style="fill:#cfcfd1"
     d="m 693.76123,338.66501 h 38.6692 v 43.0843 h -38.6692 z"
     id="rect730" />
  <path
     style="fill:#cfcfd1"
     d="m 738.87518,338.66501 h 38.6696 v 43.0843 h -38.6696 z"
     id="rect732" />
  <path
     style="fill:#cfcfd1"
     d="m 558.39917,387.92899 h 38.6692 v 43.0843 h -38.6692 z"
     id="rect734" />
  <path
     style="fill:#cfcfd1"
     d="m 512.06732,387.92899 h 38.6692 v 43.0843 h -38.6692 z"
     id="rect736" />
  <path
     style="fill:#cfcfd1"
     d="m 603.51343,387.92899 h 38.6692 v 43.0843 h -38.6692 z"
     id="rect738" />
  <path
     style="fill:#cfcfd1"
     d="m 648.62738,387.92899 h 38.6692 v 43.0843 h -38.6692 z"
     id="rect740" />
  <path
     style="fill:#cfcfd1"
     d="m 693.76123,387.92899 h 38.6692 v 43.0843 h -38.6692 z"
     id="rect742" />
  <path
     style="fill:#cfcfd1"
     d="m 738.87518,387.92899 h 38.6696 v 43.0843 h -38.6696 z"
     id="rect744" />
  <path
     style="fill:#cfcfd1"
     d="m 558.39917,486.457 h 38.6692 v 43.0843 h -38.6692 z"
     id="rect746" />
  <path
     style="fill:#cfcfd1"
     d="m 512.06732,486.457 h 38.6692 v 43.0843 h -38.6692 z"
     id="rect748" />
  <path
     style="fill:#cfcfd1"
     d="m 603.51343,486.457 h 38.6692 v 43.0843 h -38.6692 z"
     id="rect750" />
  <path
     style="fill:#cfcfd1"
     d="m 648.62738,486.457 h 38.6692 v 43.0843 h -38.6692 z"
     id="rect752" />
  <path
     style="fill:#cfcfd1"
     d="m 693.76123,486.457 h 38.6692 v 43.0843 h -38.6692 z"
     id="rect754" />
  <path
     style="fill:#cfcfd1"
     d="m 738.87518,486.457 h 38.6696 v 43.0843 h -38.6696 z"
     id="rect756" />
  <path
     style="fill:#cfcfd1"
     d="m 301.13171,240.13699 h 38.6692 v 43.0843 h -38.6692 z"
     id="rect758" />
  <path
     style="fill:#cfcfd1"
     d="m 254.7999,240.13699 h 38.6692 v 43.0843 h -38.6692 z"
     id="rect760" />
  <path
     style="fill:#cfcfd1"
     d="m 346.24591,240.13699 h 38.6692 v 43.0843 h -38.6692 z"
     id="rect762" />
  <path
     style="fill:#cfcfd1"
     d="m 391.35999,240.13699 h 38.6692 v 43.0843 h -38.6692 z"
     id="rect764" />
  <path
     style="fill:#cfcfd1"
     d="m 301.13171,338.66501 h 38.6692 v 43.0843 h -38.6692 z"
     id="rect766" />
  <path
     style="fill:#cfcfd1"
     d="m 254.7999,338.66501 h 38.6692 v 43.0843 h -38.6692 z"
     id="rect768" />
  <path
     style="fill:#cfcfd1"
     d="m 346.24591,338.66501 h 38.6692 v 43.0843 h -38.6692 z"
     id="rect770" />
  <path
     style="fill:#cfcfd1"
     d="m 391.35999,338.66501 h 38.6692 v 43.0843 h -38.6692 z"
     id="rect772" />
  <path
     style="fill:#cfcfd1"
     d="m 301.13171,387.92899 h 38.6692 v 43.0843 h -38.6692 z"
     id="rect774" />
  <path
     style="fill:#cfcfd1"
     d="m 254.7999,387.92899 h 38.6692 v 43.0843 h -38.6692 z"
     id="rect776" />
  <path
     style="fill:#cfcfd1"
     d="m 346.24591,387.92899 h 38.6692 v 43.0843 h -38.6692 z"
     id="rect778" />
  <path
     style="fill:#cfcfd1"
     d="m 391.35999,387.92899 h 38.6692 v 43.0843 h -38.6692 z"
     id="rect780" />
  <path
     style="fill:#cfcfd1"
     d="m 301.13171,486.457 h 38.6692 v 43.0843 h -38.6692 z"
     id="rect782" />
  <path
     style="fill:#cfcfd1"
     d="m 254.7999,486.457 h 38.6692 v 43.0843 h -38.6692 z"
     id="rect784" />
  <path
     style="fill:#cfcfd1"
     d="m 346.24591,486.457 h 38.6692 v 43.0843 h -38.6692 z"
     id="rect786" />
  <path
     style="fill:#cfcfd1"
     d="m 391.35999,486.457 h 38.6692 v 43.0843 h -38.6692 z"
     id="rect788" />
  <path
     style="fill:#d0d0d2"
     d="m 193.131,183.2 v 75.086 H 139.94 v 38.669 H 193.131 231.8 V 258.286 183.2 Z"
     id="polygon790" />
  <path
     style="fill:#d0d0d2"
     d="M 193.131,65.258 H 139.94 v 38.669 h 53.191 v 75.086 H 231.8 V 103.927 65.258 Z"
     id="polygon792" />
  <path
     style="fill:#d0d0d2"
     d="m 82.818,218.779 v 39.507 h 53.191 v 38.669 H 82.818 44.149 v -38.669 -39.507 z"
     id="polygon794" />
  <path
     style="fill:#d0d0d2"
     d="m 82.818,65.258 h 53.191 v 38.669 H 82.818 v 39.507 H 44.149 V 103.927 65.258 Z"
     id="polygon796" />
  <path
     style="fill:#cfced0"
     d="m 2375.6929,366.03391 h 38.6692 v 43.0843 h -38.6692 z"
     id="rect798" />
  <path
     style="fill:#cfced0"
     d="m 2329.3611,366.03391 h 38.6692 v 43.0843 h -38.6692 z"
     id="rect800" />
  <path
     style="fill:#cfced0"
     d="m 2375.6929,415.29791 h 38.6692 v 43.0843 h -38.6692 z"
     id="rect802" />
  <path
     style="fill:#cfced0"
     d="m 2329.3611,415.29791 h 38.6692 v 43.0843 h -38.6692 z"
     id="rect804" />
  <path
     style="fill:#cfced0"
     d="m 2375.6929,500.14139 h 38.6692 v 43.0843 h -38.6692 z"
     id="rect806" />
  <path
     style="fill:#cfced0"
     d="m 2329.3611,500.14139 h 38.6692 v 43.0843 h -38.6692 z"
     id="rect808" />
  <path
     style="fill:#cfced0"
     d="m 2420.8071,500.14139 h 38.6692 v 43.0843 h -38.6692 z"
     id="rect810" />
  <path
     style="fill:#cfced0"
     d="m 2465.9211,500.14139 h 38.6692 v 43.0843 h -38.6692 z"
     id="rect812" />
  <path
     style="fill:#cfced0"
     d="m 2511.0549,500.14139 h 38.6692 v 43.0843 h -38.6692 z"
     id="rect814" />
  <path
     style="fill:#cfced0"
     d="m 2556.1689,500.14139 h 38.6696 v 43.0843 h -38.6696 z"
     id="rect816" />
  <path
     style="fill:#cfced0"
     d="m 2601.2832,500.14139 h 38.6691 v 43.0843 h -38.6691 z"
     id="rect818" />
  <path
     style="fill:#cfced0"
     d="m 2375.6929,653.4071 h 38.6692 v 43.08431 h -38.6692 z"
     id="rect820" />
  <path
     style="fill:#cfced0"
     d="m 2329.3611,653.4071 h 38.6692 v 43.08431 h -38.6692 z"
     id="rect822" />
  <path
     style="fill:#cfced0"
     d="m 2420.8071,653.4071 h 38.6692 v 43.08431 h -38.6692 z"
     id="rect824" />
  <path
     style="fill:#cfced0"
     d="m 2465.9211,653.4071 h 38.6692 v 43.08431 h -38.6692 z"
     id="rect826" />
  <path
     style="fill:#cfced0"
     d="m 2511.0549,653.4071 h 38.6692 v 43.08431 h -38.6692 z"
     id="rect828" />
  <path
     style="fill:#cfced0"
     d="m 2556.1689,653.4071 h 38.6696 v 43.08431 h -38.6696 z"
     id="rect830" />
  <path
     style="fill:#cfced0"
     d="m 2601.2832,653.4071 h 38.6691 v 43.08431 h -38.6691 z"
     id="rect832" />
  <path
     style="fill:#cfced0"
     d="m 2375.6929,702.67108 h 38.6692 v 43.0843 h -38.6692 z"
     id="rect834" />
  <path
     style="fill:#cfced0"
     d="m 2329.3611,702.67108 h 38.6692 v 43.0843 h -38.6692 z"
     id="rect836" />
  <path
     style="fill:#cfced0"
     d="m 2420.8071,702.67108 h 38.6692 v 43.0843 h -38.6692 z"
     id="rect838" />
  <path
     style="fill:#cfced0"
     d="m 2465.9211,702.67108 h 38.6692 v 43.0843 h -38.6692 z"
     id="rect840" />
  <path
     style="fill:#cfced0"
     d="m 2511.0549,702.67108 h 38.6692 v 43.0843 h -38.6692 z"
     id="rect842" />
  <path
     style="fill:#cfced0"
     d="m 2556.1689,702.67108 h 38.6696 v 43.0843 h -38.6696 z"
     id="rect844" />
  <path
     style="fill:#cfced0"
     d="m 2601.2832,702.67108 h 38.6691 v 43.0843 h -38.6691 z"
     id="rect846" />
  <path
     style="fill:#cfced0"
     d="m 2375.6929,801.1991 h 38.6692 v 43.0843 h -38.6692 z"
     id="rect848" />
  <path
     style="fill:#cfced0"
     d="m 2329.3611,801.1991 h 38.6692 v 43.0843 h -38.6692 z"
     id="rect850" />
  <path
     style="fill:#cfced0"
     d="m 2420.8071,801.1991 h 38.6692 v 43.0843 h -38.6692 z"
     id="rect852" />
  <path
     style="fill:#cfced0"
     d="m 2465.9211,801.1991 h 38.6692 v 43.0843 h -38.6692 z"
     id="rect854" />
  <path
     style="fill:#cfced0"
     d="m 2511.0549,801.1991 h 38.6692 v 43.0843 h -38.6692 z"
     id="rect856" />
  <path
     style="fill:#cfced0"
     d="m 2556.1689,801.1991 h 38.6696 v 43.0843 h -38.6696 z"
     id="rect858" />
  <path
     style="fill:#cfced0"
     d="m 2601.2832,801.1991 h 38.6691 v 43.0843 h -38.6691 z"
     id="rect860" />
  <path
     style="fill:#cfced0"
     d="m 2375.6929,850.46307 h 38.6692 v 43.0843 h -38.6692 z"
     id="rect862" />
  <path
     style="fill:#cfced0"
     d="m 2329.3611,850.46307 h 38.6692 v 43.0843 h -38.6692 z"
     id="rect864" />
  <path
     style="fill:#cfced0"
     d="m 2420.8071,850.46307 h 38.6692 v 43.0843 h -38.6692 z"
     id="rect866" />
  <path
     style="fill:#cfced0"
     d="m 2465.9211,850.46307 h 38.6692 v 43.0843 h -38.6692 z"
     id="rect868" />
  <path
     style="fill:#cfced0"
     d="m 2511.0549,850.46307 h 38.6692 v 43.0843 h -38.6692 z"
     id="rect870" />
  <path
     style="fill:#cfced0"
     d="m 2556.1689,850.46307 h 38.6696 v 43.0843 h -38.6696 z"
     id="rect872" />
  <path
     style="fill:#cfced0"
     d="m 2601.2832,850.46307 h 38.6691 v 43.0843 h -38.6691 z"
     id="rect874" />
  <path
     style="fill:#cfced0"
     d="m 2375.6929,946.25421 h 38.6692 v 43.0843 h -38.6692 z"
     id="rect876" />
  <path
     style="fill:#cfced0"
     d="m 2329.3611,946.25421 h 38.6692 v 43.0843 h -38.6692 z"
     id="rect878" />
  <path
     style="fill:#cfced0"
     d="m 2420.8071,946.25421 h 38.6692 v 43.0843 h -38.6692 z"
     id="rect880" />
  <path
     style="fill:#cfced0"
     d="m 2465.9211,946.25421 h 38.6692 v 43.0843 h -38.6692 z"
     id="rect882" />
  <path
     style="fill:#cfced0"
     d="m 2511.0549,946.25421 h 38.6692 v 43.0843 h -38.6692 z"
     id="rect884" />
  <path
     style="fill:#cfced0"
     d="m 2556.1689,946.25421 h 38.6696 v 43.0843 h -38.6696 z"
     id="rect886" />
  <path
     style="fill:#cfced0"
     d="m 2601.2832,946.25421 h 38.6691 v 43.0843 h -38.6691 z"
     id="rect888" />
  <path
     style="fill:#cfced0"
     d="m 2375.6929,995.51813 h 38.6692 v 43.08427 h -38.6692 z"
     id="rect890" />
  <path
     style="fill:#cfced0"
     d="m 2329.3611,995.51813 h 38.6692 v 43.08427 h -38.6692 z"
     id="rect892" />
  <path
     style="fill:#cfced0"
     d="m 2420.8071,995.51813 h 38.6692 v 43.08427 h -38.6692 z"
     id="rect894" />
  <path
     style="fill:#cfced0"
     d="m 2465.9211,995.51813 h 38.6692 v 43.08427 h -38.6692 z"
     id="rect896" />
  <path
     style="fill:#cfced0"
     d="m 2511.0549,995.51813 h 38.6692 v 43.08427 h -38.6692 z"
     id="rect898" />
  <path
     style="fill:#cfced0"
     d="m 2556.1689,995.51813 h 38.6696 v 43.08427 h -38.6696 z"
     id="rect900" />
  <path
     style="fill:#cfced0"
     d="m 2601.2832,995.51813 h 38.6691 v 43.08427 h -38.6691 z"
     id="rect902" />
  <path
     style="fill:#cfced0"
     d="m 2375.6929,281.1904 h 38.6692 v 43.0843 h -38.6692 z"
     id="rect904" />
  <path
     style="fill:#cfced0"
     d="m 2329.3611,281.1904 h 38.6692 v 43.0843 h -38.6692 z"
     id="rect906" />
  <path
     style="fill:#cfced0"
     d="m 2645.0735,500.14139 h 38.6691 v 43.0843 h -38.6691 z"
     id="rect908" />
  <path
     style="fill:#cfced0"
     d="m 2645.0735,653.4071 h 38.6691 v 43.08431 h -38.6691 z"
     id="rect910" />
  <path
     style="fill:#cfced0"
     d="m 2645.0735,702.67108 h 38.6691 v 43.0843 h -38.6691 z"
     id="rect912" />
  <path
     style="fill:#cfced0"
     d="m 2645.0735,801.1991 h 38.6691 v 43.0843 h -38.6691 z"
     id="rect914" />
  <path
     style="fill:#cfced0"
     d="m 2645.0735,850.46307 h 38.6691 v 43.0843 h -38.6691 z"
     id="rect916" />
  <path
     style="fill:#cfced0"
     d="m 2645.0735,946.25421 h 38.6691 v 43.0843 h -38.6691 z"
     id="rect918" />
  <path
     style="fill:#cfced0"
     d="m 2645.0735,995.51813 h 38.6691 v 43.08427 h -38.6691 z"
     id="rect920" />
  <path
     style="fill:#d0d0d2"
     d="m 2420.8071,84.134399 h 262.9355 V 493.82071 h -262.9355 z"
     id="rect922" />
  <path
     style="fill:#cfced0"
     d="m 2375.6929,231.92641 h 38.6692 v 43.0843 h -38.6692 z"
     id="rect924" />
  <path
     style="fill:#cfced0"
     d="m 2329.3611,231.92641 h 38.6692 v 43.0843 h -38.6692 z"
     id="rect926" />
  <path
     style="fill:#cfced0"
     d="m 2375.6929,147.08279 h 38.6692 v 43.08431 h -38.6692 z"
     id="rect928" />
  <path
     style="fill:#cfced0"
     d="m 2329.3611,147.08279 h 38.6692 v 43.08431 h -38.6692 z"
     id="rect930" />
  <path
     style="fill:#cfced0"
     d="m 2840.9639,500.14139 h 38.6692 v 43.0843 h -38.6692 z"
     id="rect932" />
  <path
     style="fill:#cfced0"
     d="m 2794.6321,500.14139 h 38.6692 v 43.0843 h -38.6692 z"
     id="rect934" />
  <path
     style="fill:#cfced0"
     d="m 2886.0779,500.14139 h 38.6692 v 43.0843 h -38.6692 z"
     id="rect936" />
  <path
     style="fill:#cfced0"
     d="m 2931.1921,500.14139 h 38.6692 v 43.0843 h -38.6692 z"
     id="rect938" />
  <path
     style="fill:#cfced0"
     d="m 2840.9639,653.4071 h 38.6692 v 43.08431 h -38.6692 z"
     id="rect940" />
  <path
     style="fill:#cfced0"
     d="m 2794.6321,653.4071 h 38.6692 v 43.08431 h -38.6692 z"
     id="rect942" />
  <path
     style="fill:#cfced0"
     d="m 2886.0779,653.4071 h 38.6692 v 43.08431 h -38.6692 z"
     id="rect944" />
  <path
     style="fill:#cfced0"
     d="m 2931.1921,653.4071 h 38.6692 v 43.08431 h -38.6692 z"
     id="rect946" />
  <path
     style="fill:#cfced0"
     d="m 2840.9639,702.67108 h 38.6692 v 43.0843 h -38.6692 z"
     id="rect948" />
  <path
     style="fill:#cfced0"
     d="m 2794.6321,702.67108 h 38.6692 v 43.0843 h -38.6692 z"
     id="rect950" />
  <path
     style="fill:#cfced0"
     d="m 2886.0779,702.67108 h 38.6692 v 43.0843 h -38.6692 z"
     id="rect952" />
  <path
     style="fill:#cfced0"
     d="m 2931.1921,702.67108 h 38.6692 v 43.0843 h -38.6692 z"
     id="rect954" />
  <path
     style="fill:#cfced0"
     d="m 2840.9639,801.1991 h 38.6692 v 43.0843 h -38.6692 z"
     id="rect956" />
  <path
     style="fill:#cfced0"
     d="m 2794.6321,801.1991 h 38.6692 v 43.0843 h -38.6692 z"
     id="rect958" />
  <path
     style="fill:#cfced0"
     d="m 2886.0779,801.1991 h 38.6692 v 43.0843 h -38.6692 z"
     id="rect960" />
  <path
     style="fill:#cfced0"
     d="m 2931.1921,801.1991 h 38.6692 v 43.0843 h -38.6692 z"
     id="rect962" />
  <path
     style="fill:#cfced0"
     d="m 2840.9639,850.46307 h 38.6692 v 43.0843 h -38.6692 z"
     id="rect964" />
  <path
     style="fill:#cfced0"
     d="m 2794.6321,850.46307 h 38.6692 v 43.0843 h -38.6692 z"
     id="rect966" />
  <path
     style="fill:#cfced0"
     d="m 2886.0779,850.46307 h 38.6692 v 43.0843 h -38.6692 z"
     id="rect968" />
  <path
     style="fill:#cfced0"
     d="m 2931.1921,850.46307 h 38.6692 v 43.0843 h -38.6692 z"
     id="rect970" />
  <path
     style="fill:#cfced0"
     d="m 2840.9639,946.25421 h 38.6692 v 43.0843 h -38.6692 z"
     id="rect972" />
  <path
     style="fill:#cfced0"
     d="m 2794.6321,946.25421 h 38.6692 v 43.0843 h -38.6692 z"
     id="rect974" />
  <path
     style="fill:#cfced0"
     d="m 2886.0779,946.25421 h 38.6692 v 43.0843 h -38.6692 z"
     id="rect976" />
  <path
     style="fill:#cfced0"
     d="m 2931.1921,946.25421 h 38.6692 v 43.0843 h -38.6692 z"
     id="rect978" />
  <path
     style="fill:#cfced0"
     d="m 2840.9639,995.51813 h 38.6692 v 43.08427 h -38.6692 z"
     id="rect980" />
  <path
     style="fill:#cfced0"
     d="m 2794.6321,995.51813 h 38.6692 v 43.08427 h -38.6692 z"
     id="rect982" />
  <path
     style="fill:#cfced0"
     d="m 2886.0779,995.51813 h 38.6692 v 43.08427 h -38.6692 z"
     id="rect984" />
  <path
     style="fill:#cfced0"
     d="m 2931.1921,995.51813 h 38.6692 v 43.08427 h -38.6692 z"
     id="rect986" />
  <path
     style="fill:#cfced0"
     d="m 2931.1921,366.03391 h 38.6692 v 43.0843 h -38.6692 z"
     id="rect988" />
  <path
     style="fill:#cfced0"
     d="m 2884.8604,366.03391 h 38.6692 v 43.0843 h -38.6692 z"
     id="rect990" />
  <path
     style="fill:#cfced0"
     d="m 2931.1921,415.29791 h 38.6692 v 43.0843 h -38.6692 z"
     id="rect992" />
  <path
     style="fill:#cfced0"
     d="m 2884.8604,415.29791 h 38.6692 v 43.0843 h -38.6692 z"
     id="rect994" />
  <path
     style="fill:#cfced0"
     d="m 2931.1921,281.1904 h 38.6692 v 43.0843 h -38.6692 z"
     id="rect996" />
  <path
     style="fill:#cfced0"
     d="m 2884.8604,281.1904 h 38.6692 v 43.0843 h -38.6692 z"
     id="rect998" />
  <path
     style="fill:#cfced0"
     d="m 2931.1921,231.92641 h 38.6692 v 43.0843 h -38.6692 z"
     id="rect1000" />
  <path
     style="fill:#cfced0"
     d="m 2884.8604,231.92641 h 38.6692 v 43.0843 h -38.6692 z"
     id="rect1002" />
  <path
     style="fill:#cfced0"
     d="m 2931.1921,147.08279 h 38.6692 v 43.08431 h -38.6692 z"
     id="rect1004" />
  <path
     style="fill:#cfced0"
     d="m 2884.8604,147.08279 h 38.6692 v 43.08431 h -38.6692 z"
     id="rect1006" />
  <path
     style="fill:#d0d0d2"
     d="m 2794.6321,84.134399 h 80.6928 V 216.9669 h -80.6928 z"
     id="rect1008" />
  <path
     style="fill:#cfced0"
     d="m 3125.6001,554.87921 h 38.6692 v 43.0843 h -38.6692 z"
     id="rect1010" />
  <path
     style="fill:#cfced0"
     d="m 3079.2683,554.87921 h 38.6692 v 43.0843 h -38.6692 z"
     id="rect1012" />
  <path
     style="fill:#cfced0"
     d="m 3170.7144,554.87921 h 38.6692 v 43.0843 h -38.6692 z"
     id="rect1014" />
  <path
     style="fill:#cfced0"
     d="m 3215.8284,554.87921 h 38.6692 v 43.0843 h -38.6692 z"
     id="rect1016" />
  <path
     style="fill:#cfced0"
     d="m 3125.6001,653.4071 h 38.6692 v 43.08431 h -38.6692 z"
     id="rect1018" />
  <path
     style="fill:#cfced0"
     d="m 3079.2683,653.4071 h 38.6692 v 43.08431 h -38.6692 z"
     id="rect1020" />
  <path
     style="fill:#cfced0"
     d="m 3170.7144,653.4071 h 38.6692 v 43.08431 h -38.6692 z"
     id="rect1022" />
  <path
     style="fill:#cfced0"
     d="m 3215.8284,653.4071 h 38.6692 v 43.08431 h -38.6692 z"
     id="rect1024" />
  <path
     style="fill:#cfced0"
     d="m 3125.6001,702.67108 h 38.6692 v 43.0843 h -38.6692 z"
     id="rect1026" />
  <path
     style="fill:#cfced0"
     d="m 3079.2683,702.67108 h 38.6692 v 43.0843 h -38.6692 z"
     id="rect1028" />
  <path
     style="fill:#cfced0"
     d="m 3170.7144,702.67108 h 38.6692 v 43.0843 h -38.6692 z"
     id="rect1030" />
  <path
     style="fill:#cfced0"
     d="m 3215.8284,702.67108 h 38.6692 v 43.0843 h -38.6692 z"
     id="rect1032" />
  <path
     style="fill:#cfced0"
     d="m 3125.6001,801.1991 h 38.6692 v 43.0843 h -38.6692 z"
     id="rect1034" />
  <path
     style="fill:#cfced0"
     d="m 3079.2683,801.1991 h 38.6692 v 43.0843 h -38.6692 z"
     id="rect1036" />
  <path
     style="fill:#cfced0"
     d="m 3170.7144,801.1991 h 38.6692 v 43.0843 h -38.6692 z"
     id="rect1038" />
  <path
     style="fill:#cfced0"
     d="m 3215.8284,801.1991 h 38.6692 v 43.0843 h -38.6692 z"
     id="rect1040" />
  <path
     style="fill:#cfced0"
     d="m 3125.6001,850.46307 h 38.6692 v 43.0843 h -38.6692 z"
     id="rect1042" />
  <path
     style="fill:#cfced0"
     d="m 3079.2683,850.46307 h 38.6692 v 43.0843 h -38.6692 z"
     id="rect1044" />
  <path
     style="fill:#cfced0"
     d="m 3170.7144,850.46307 h 38.6692 v 43.0843 h -38.6692 z"
     id="rect1046" />
  <path
     style="fill:#cfced0"
     d="m 3215.8284,850.46307 h 38.6692 v 43.0843 h -38.6692 z"
     id="rect1048" />
  <path
     style="fill:#cfced0"
     d="m 3125.6001,946.25421 h 38.6692 v 43.0843 h -38.6692 z"
     id="rect1050" />
  <path
     style="fill:#cfced0"
     d="m 3079.2683,946.25421 h 38.6692 v 43.0843 h -38.6692 z"
     id="rect1052" />
  <path
     style="fill:#cfced0"
     d="m 3170.7144,946.25421 h 38.6692 v 43.0843 h -38.6692 z"
     id="rect1054" />
  <path
     style="fill:#cfced0"
     d="m 3215.8284,946.25421 h 38.6692 v 43.0843 h -38.6692 z"
     id="rect1056" />
  <path
     style="fill:#cfced0"
     d="m 3125.6001,995.51813 h 38.6692 v 43.08427 h -38.6692 z"
     id="rect1058" />
  <path
     style="fill:#cfced0"
     d="m 3079.2683,995.51813 h 38.6692 v 43.08427 h -38.6692 z"
     id="rect1060" />
  <path
     style="fill:#cfced0"
     d="m 3170.7144,995.51813 h 38.6692 v 43.08427 h -38.6692 z"
     id="rect1062" />
  <path
     style="fill:#cfced0"
     d="m 3215.8284,995.51813 h 38.6692 v 43.08427 h -38.6692 z"
     id="rect1064" />
  <path
     style="fill:#cfced0"
     d="m 3125.6001,505.6152 h 38.6692 v 43.0843 h -38.6692 z"
     id="rect1066" />
  <path
     style="fill:#cfced0"
     d="m 3079.2683,505.6152 h 38.6692 v 43.0843 h -38.6692 z"
     id="rect1068" />
  <path
     style="fill:#cfced0"
     d="m 3170.7144,505.6152 h 38.6692 v 43.0843 h -38.6692 z"
     id="rect1070" />
  <path
     style="fill:#cfced0"
     d="m 3215.8284,505.6152 h 38.6692 v 43.0843 h -38.6692 z"
     id="rect1072" />
  <path
     style="fill:#cfced0"
     d="m 3125.6001,283.92719 h 38.6692 v 43.0843 h -38.6692 z"
     id="rect1074" />
  <path
     style="fill:#cfced0"
     d="m 3079.2683,283.92719 h 38.6692 v 43.0843 h -38.6692 z"
     id="rect1076" />
  <path
     style="fill:#cfced0"
     d="m 3170.7144,283.92719 h 38.6692 v 43.0843 h -38.6692 z"
     id="rect1078" />
  <path
     style="fill:#cfced0"
     d="m 3215.8284,283.92719 h 38.6692 v 43.0843 h -38.6692 z"
     id="rect1080" />
  <path
     style="fill:#cfced0"
     d="m 3125.6001,371.50769 h 38.6692 v 43.0843 h -38.6692 z"
     id="rect1082" />
  <path
     style="fill:#cfced0"
     d="m 3079.2683,371.50769 h 38.6692 v 43.0843 h -38.6692 z"
     id="rect1084" />
  <path
     style="fill:#cfced0"
     d="m 3170.7144,371.50769 h 38.6692 v 43.0843 h -38.6692 z"
     id="rect1086" />
  <path
     style="fill:#cfced0"
     d="m 3215.8284,371.50769 h 38.6692 v 43.0843 h -38.6692 z"
     id="rect1088" />
  <path
     style="fill:#cfced0"
     d="m 3125.6001,420.77161 h 38.6692 v 43.0843 h -38.6692 z"
     id="rect1090" />
  <path
     style="fill:#cfced0"
     d="m 3079.2683,420.77161 h 38.6692 v 43.0843 h -38.6692 z"
     id="rect1092" />
  <path
     style="fill:#cfced0"
     d="m 3170.7144,420.77161 h 38.6692 v 43.0843 h -38.6692 z"
     id="rect1094" />
  <path
     style="fill:#cfced0"
     d="m 3215.8284,420.77161 h 38.6692 v 43.0843 h -38.6692 z"
     id="rect1096" />
  <path
     style="fill:#cfced0"
     d="m 3125.6001,234.6633 h 38.6692 v 43.0843 h -38.6692 z"
     id="rect1098" />
  <path
     style="fill:#cfced0"
     d="m 3079.2683,234.6633 h 38.6692 v 43.0843 h -38.6692 z"
     id="rect1100" />
  <path
     style="fill:#cfced0"
     d="m 3170.7144,234.6633 h 38.6692 v 43.0843 h -38.6692 z"
     id="rect1102" />
  <path
     style="fill:#cfced0"
     d="m 3215.8284,234.6633 h 38.6692 v 43.0843 h -38.6692 z"
     id="rect1104" />
  <path
     style="fill:#cfced0"
     d="m 3125.6001,149.8197 h 38.6692 v 43.0843 h -38.6692 z"
     id="rect1106" />
  <path
     style="fill:#cfced0"
     d="m 3079.2683,149.8197 h 38.6692 v 43.0843 h -38.6692 z"
     id="rect1108" />
  <path
     style="fill:#cfced0"
     d="m 3170.7144,149.8197 h 38.6692 v 43.0843 h -38.6692 z"
     id="rect1110" />
  <path
     style="fill:#cfced0"
     d="m 3215.8284,149.8197 h 38.6692 v 43.0843 h -38.6692 z"
     id="rect1112" />
  <path
     style="fill:#d0d0d2"
     d="m 3339.0034,84.134399 h 107.6509 V 211.6554 h -107.6509 z"
     id="rect1114" />
  <path
     style="fill:#d0d0d2"
     d="m 3339.0034,216.3784 h 107.6509 v 127.52101 h -107.6509 z"
     id="rect1116" />
  <path
     style="fill:#d0d0d2"
     d="m 3339.0034,348.62241 h 107.6509 v 127.521 h -107.6509 z"
     id="rect1118" />
  <path
     style="fill:#d0d0d2"
     d="m 3339.0034,480.8663 h 107.6509 v 127.52101 h -107.6509 z"
     id="rect1120" />
  <path
     style="fill:#d0d0d2"
     d="m 3339.0034,613.11029 h 107.6509 v 127.521 h -107.6509 z"
     id="rect1122" />
  <path
     style="fill:#d0d0d2"
     d="m 3339.0034,745.35431 h 107.6509 v 127.521 h -107.6509 z"
     id="rect1124" />
  <path
     style="fill:#d0d0d2"
     d="m 3339.0034,877.59833 h 107.6509 v 127.52097 h -107.6509 z"
     id="rect1126" />
  <path
     style="fill:#d0d0d2"
     d="m 3339.0034,1009.6094 h 107.6509 v 127.521 h -107.6509 z"
     id="rect1128" />
  <path
     style="fill:#cfcfd1"
     d="m 301.13171,191.6861 h 38.6692 v 43.0843 h -38.6692 z"
     id="rect1130" />
  <path
     style="fill:#cfcfd1"
     d="m 254.7999,191.6861 h 38.6692 v 43.0843 h -38.6692 z"
     id="rect1132" />
  <path
     style="fill:#cfcfd1"
     d="m 346.24591,191.6861 h 38.6692 v 43.0843 h -38.6692 z"
     id="rect1134" />
  <path
     style="fill:#cfcfd1"
     d="m 391.35999,191.6861 h 38.6692 v 43.0843 h -38.6692 z"
     id="rect1136" />
  <path
     style="fill:#cfcfd1"
     d="m 301.13171,92.3451 h 38.6692 v 43.0843 h -38.6692 z"
     id="rect1138" />
  <path
     style="fill:#cfcfd1"
     d="m 254.7999,92.3451 h 38.6692 v 43.0843 h -38.6692 z"
     id="rect1140" />
  <path
     style="fill:#cfcfd1"
     d="m 346.24591,92.3451 h 38.6692 v 43.0843 h -38.6692 z"
     id="rect1142" />
  <path
     style="fill:#cfcfd1"
     d="m 391.35999,92.3451 h 38.6692 v 43.0843 h -38.6692 z"
     id="rect1144" />
  <path
     style="fill:#cfcfd1"
     d="m 558.39917,191.6861 h 38.6692 v 43.0843 h -38.6692 z"
     id="rect1146" />
  <path
     style="fill:#cfcfd1"
     d="m 512.06732,191.6861 h 38.6692 v 43.0843 h -38.6692 z"
     id="rect1148" />
  <path
     style="fill:#cfcfd1"
     d="m 603.51343,191.6861 h 38.6692 v 43.0843 h -38.6692 z"
     id="rect1150" />
  <path
     style="fill:#cfcfd1"
     d="m 648.62738,191.6861 h 38.6692 v 43.0843 h -38.6692 z"
     id="rect1152" />
  <path
     style="fill:#cfcfd1"
     d="m 693.76123,191.6861 h 38.6692 v 43.0843 h -38.6692 z"
     id="rect1154" />
  <path
     style="fill:#cfcfd1"
     d="m 738.87518,191.6861 h 38.6696 v 43.0843 h -38.6696 z"
     id="rect1156" />
  <path
     style="fill:#cfcfd1"
     d="m 558.39917,92.3451 h 38.6692 v 43.0843 h -38.6692 z"
     id="rect1158" />
  <path
     style="fill:#cfcfd1"
     d="m 512.06732,92.3451 h 38.6692 v 43.0843 h -38.6692 z"
     id="rect1160" />
  <path
     style="fill:#cfcfd1"
     d="m 603.51343,92.3451 h 38.6692 v 43.0843 h -38.6692 z"
     id="rect1162" />
  <path
     style="fill:#cfcfd1"
     d="m 648.62738,92.3451 h 38.6692 v 43.0843 h -38.6692 z"
     id="rect1164" />
  <path
     style="fill:#cfcfd1"
     d="m 693.76123,92.3451 h 38.6692 v 43.0843 h -38.6692 z"
     id="rect1166" />
  <path
     style="fill:#cfcfd1"
     d="m 738.87518,92.3451 h 38.6696 v 43.0843 h -38.6696 z"
     id="rect1168" />
  <path
     style="fill:#cfced0"
     d="m 2375.6929,1094.0461 h 38.6692 v 43.0843 h -38.6692 z"
     id="rect1170" />
  <path
     style="fill:#cfced0"
     d="m 2329.3611,1094.0461 h 38.6692 v 43.0843 h -38.6692 z"
     id="rect1172" />
  <path
     style="fill:#cfced0"
     d="m 2420.8071,1094.0461 h 38.6692 v 43.0843 h -38.6692 z"
     id="rect1174" />
  <path
     style="fill:#cfced0"
     d="m 2465.9211,1094.0461 h 38.6692 v 43.0843 h -38.6692 z"
     id="rect1176" />
  <path
     style="fill:#cfced0"
     d="m 2511.0549,1094.0461 h 38.6692 v 43.0843 h -38.6692 z"
     id="rect1178" />
  <path
     style="fill:#cfced0"
     d="m 2556.1689,1094.0461 h 38.6696 v 43.0843 h -38.6696 z"
     id="rect1180" />
  <path
     style="fill:#cfced0"
     d="m 2601.2832,1094.0461 h 38.6691 v 43.0843 h -38.6691 z"
     id="rect1182" />
  <path
     style="fill:#cfced0"
     d="m 2645.0735,1094.0461 h 38.6691 v 43.0843 h -38.6691 z"
     id="rect1184" />
  <path
     style="fill:#cfced0"
     d="m 2840.9639,1094.0461 h 38.6692 v 43.0843 h -38.6692 z"
     id="rect1186" />
  <path
     style="fill:#cfced0"
     d="m 2794.6321,1094.0461 h 38.6692 v 43.0843 h -38.6692 z"
     id="rect1188" />
  <path
     style="fill:#cfced0"
     d="m 2886.0779,1094.0461 h 38.6692 v 43.0843 h -38.6692 z"
     id="rect1190" />
  <path
     style="fill:#cfced0"
     d="m 2931.1921,1094.0461 h 38.6692 v 43.0843 h -38.6692 z"
     id="rect1192" />
  <path
     style="fill:#cfced0"
     d="m 3125.6001,1094.0461 h 38.6692 v 43.0843 h -38.6692 z"
     id="rect1194" />
  <path
     style="fill:#cfced0"
     d="m 3079.2683,1094.0461 h 38.6692 v 43.0843 h -38.6692 z"
     id="rect1196" />
  <path
     style="fill:#cfced0"
     d="m 3170.7144,1094.0461 h 38.6692 v 43.0843 h -38.6692 z"
     id="rect1198" />
  <path
     style="fill:#cfced0"
     d="m 3215.8284,1094.0461 h 38.6692 v 43.0843 h -38.6692 z"
     id="rect1200" />
  <path
     style="fill:#d0d0d2"
     d="m 1031.143,165.427 v 0.863 28.902 h -22.108 v 21.639 h 43.746 v -17.67 -28.902 -4.832 -11.774 h -21.638 z"
     id="polygon1202" />
  <path
     style="fill:#d0d0d2"
     d="m 932.401,165.427 v 4.832 28.902 17.67 h 43.747 V 195.192 H 954.04 v -28.902 -0.863 -11.774 h -21.639 z"
     id="polygon1204" />
  <path
     style="fill:#d0d0d2"
     d="m 1052.781,87.498 h -21.638 -36.703 -0.36 v 21.639 h 0.36 36.703 v 41.539 h 21.638 v -41.539 z"
     id="polygon1206" />
  <path
     style="fill:#d0d0d2"
     d="m 990.743,109.137 h 0.36 V 87.498 h -0.36 -36.703 -21.639 v 21.639 41.539 h 21.639 v -41.539 z"
     id="polygon1208" />
  <path
     style="fill:#d0d0d2"
     d="m 1155.025,165.427 v 0.863 28.902 h -22.107 v 21.639 h 43.746 v -17.67 -28.902 -4.832 -11.774 h -21.639 z"
     id="polygon1210" />
  <path
     style="fill:#d0d0d2"
     d="m 1056.284,165.427 v 4.832 28.902 17.67 h 43.747 v -21.639 h -22.108 v -28.902 -0.863 -11.774 h -21.639 z"
     id="polygon1212" />
  <path
     style="fill:#d0d0d2"
     d="m 1176.664,87.498 h -21.639 -36.702 -0.361 v 21.639 h 0.361 36.702 v 41.539 h 21.639 v -41.539 z"
     id="polygon1214" />
  <path
     style="fill:#d0d0d2"
     d="m 1114.626,109.137 h 0.36 V 87.498 h -0.36 -36.703 -21.639 v 21.639 41.539 h 21.639 v -41.539 z"
     id="polygon1216" />
  <path
     style="fill:#d0d0d2"
     d="m 1266.291,153.653 v 11.774 0.863 28.902 h -22.108 v 21.639 h 43.746 v -21.639 l 10e-4,-29.765 h -10e-4 v -11.774 z"
     id="polygon1218" />
  <path
     style="fill:#d0d0d2"
     d="M 1287.929,109.137 V 87.498 h -21.638 -86.247 v 21.639 h 86.247 v 41.539 h 21.638 z"
     id="polygon1220" />
  <path
     style="fill:#d0d0d2"
     d="m 1655.217,164.829 v 0.856 28.681 h 21.938 v 21.472 h -43.411 v -17.534 -28.68 -4.795 -11.684 h 21.473 z"
     id="polygon1222" />
  <path
     style="fill:#d0d0d2"
     d="m 1753.2,164.829 v 4.795 28.68 17.534 h -43.41 v -21.472 h 21.937 v -28.681 -0.856 -11.684 h 21.473 z"
     id="polygon1224" />
  <path
     style="fill:#d0d0d2"
     d="m 1633.744,87.498 h 21.473 36.421 0.357 v 21.473 h -0.357 -36.421 v 41.22 h -21.473 v -41.22 z"
     id="polygon1226" />
  <path
     style="fill:#d0d0d2"
     d="m 1695.307,108.971 h -0.358 V 87.498 h 0.358 36.42 21.473 v 21.473 41.22 h -21.473 v -41.22 z"
     id="polygon1228" />
  <path
     style="fill:#d0d0d2"
     d="m 1532.286,164.829 v 0.856 28.681 h 21.937 v 21.472 h -43.41 v -17.534 -28.68 -4.795 -11.684 h 21.473 z"
     id="polygon1230" />
  <path
     style="fill:#d0d0d2"
     d="m 1630.269,164.829 v 4.795 28.68 17.534 h -43.411 v -21.472 h 21.938 v -28.681 -0.856 -11.684 h 21.473 z"
     id="polygon1232" />
  <path
     style="fill:#d0d0d2"
     d="m 1510.813,87.498 h 21.473 36.42 0.358 v 21.473 h -0.358 -36.42 v 41.22 h -21.473 v -41.22 z"
     id="polygon1234" />
  <path
     style="fill:#d0d0d2"
     d="m 1572.375,108.971 h -0.358 V 87.498 h 0.358 36.421 21.473 v 21.473 41.22 h -21.473 v -41.22 z"
     id="polygon1236" />
  <path
     style="fill:#d0d0d2"
     d="m 1421.874,153.145 v 11.684 0.856 28.681 h 21.938 v 21.472 h -43.411 v -21.472 -29.537 0 -11.684 z"
     id="polygon1238" />
  <path
     style="fill:#d0d0d2"
     d="M 1400.401,108.971 V 87.498 h 21.473 85.584 v 21.473 h -85.584 v 41.22 h -21.473 z"
     id="polygon1240" />
  <path
     style="fill:#d0d0d2"
     d="m 1962.015,165.327 v 0.862 28.865 h -22.079 v 21.611 h 43.69 v -17.648 -28.864 -4.826 -11.759 h -21.611 z"
     id="polygon1242" />
  <path
     style="fill:#d0d0d2"
     d="m 1863.401,165.327 v 4.826 28.864 17.648 h 43.691 v -21.611 h -22.079 v -28.865 -0.862 -11.759 h -21.612 z"
     id="polygon1244" />
  <path
     style="fill:#d0d0d2"
     d="m 1983.626,87.498 h -21.611 -36.655 -0.36 v 21.611 h 0.36 36.655 v 41.486 h 21.611 v -41.486 z"
     id="polygon1246" />
  <path
     style="fill:#d0d0d2"
     d="m 1921.668,109.109 h 0.36 V 87.498 h -0.36 -36.655 -21.612 v 21.611 41.486 h 21.612 v -41.486 z"
     id="polygon1248" />
  <path
     style="fill:#d0d0d2"
     d="m 2085.738,165.327 v 0.862 28.865 h -22.079 v 21.611 h 43.69 v -17.648 -28.864 -4.826 -11.759 h -21.611 z"
     id="polygon1250" />
  <path
     style="fill:#d0d0d2"
     d="m 1987.125,165.327 v 4.826 28.864 17.648 h 43.69 v -21.611 h -22.079 v -28.865 -0.862 -11.759 h -21.611 z"
     id="polygon1252" />
  <path
     style="fill:#d0d0d2"
     d="m 2107.349,87.498 h -21.611 -36.655 -0.36 v 21.611 h 0.36 36.655 v 41.486 h 21.611 v -41.486 z"
     id="polygon1254" />
  <path
     style="fill:#d0d0d2"
     d="m 2045.391,109.109 h 0.36 V 87.498 h -0.36 -36.655 -21.611 v 21.611 41.486 h 21.611 v -41.486 z"
     id="polygon1256" />
  <path
     style="fill:#d0d0d2"
     d="m 2196.86,153.568 v 11.759 0.862 28.865 h -22.079 v 21.611 h 43.69 v -21.611 l 0,-29.727 h -0 v -11.759 z"
     id="polygon1258" />
  <path
     style="fill:#d0d0d2"
     d="M 2218.471,109.109 V 87.498 h -21.611 -86.135 v 21.611 h 86.135 v 41.486 h 21.611 z"
     id="polygon1260" />
</svg>
